<svg xmlns="http://www.w3.org/2000/svg" xmlns:xlink="http://www.w3.org/1999/xlink" viewBox="0 0 591.92 74.91"><defs><style>.cls-1{isolation:isolate;}.cls-10,.cls-11,.cls-12,.cls-13,.cls-14,.cls-15,.cls-16,.cls-17,.cls-18,.cls-19,.cls-2,.cls-3,.cls-4,.cls-5,.cls-6,.cls-7,.cls-8,.cls-9{mix-blend-mode:multiply;}.cls-2{fill:url(#linear-gradient);}.cls-3{fill:url(#linear-gradient-2);}.cls-4{fill:url(#linear-gradient-3);}.cls-5{fill:url(#linear-gradient-4);}.cls-6{fill:url(#linear-gradient-5);}.cls-7{fill:url(#linear-gradient-6);}.cls-8{fill:url(#linear-gradient-7);}.cls-9{fill:url(#linear-gradient-8);}.cls-10{fill:url(#linear-gradient-9);}.cls-11{fill:url(#linear-gradient-10);}.cls-12{fill:url(#linear-gradient-11);}.cls-13{fill:url(#linear-gradient-12);}.cls-14{fill:url(#linear-gradient-13);}.cls-15{fill:url(#linear-gradient-14);}.cls-16{fill:url(#linear-gradient-15);}.cls-17{fill:url(#linear-gradient-16);}.cls-18{fill:url(#linear-gradient-17);}.cls-19{fill:url(#linear-gradient-18);}</style><linearGradient id="linear-gradient" x1="-907.01" y1="724.53" x2="-902.16" y2="719.69" gradientTransform="translate(-18548.02 34780.82) rotate(180) scale(20.92 48)" gradientUnits="userSpaceOnUse"><stop offset="0" stop-color="#91c78b"/><stop offset="1" stop-color="#a0cc88"/></linearGradient><linearGradient id="linear-gradient-2" x1="-826.35" y1="725.89" x2="-821.49" y2="721.02" gradientTransform="translate(-45203.02 36236.85) rotate(180) scale(54.79 50)" gradientUnits="userSpaceOnUse"><stop offset="0" stop-color="#80ccdd"/><stop offset="1" stop-color="#93c679"/></linearGradient><linearGradient id="linear-gradient-3" x1="-827.58" y1="725.33" x2="-822.17" y2="719.93" xlink:href="#linear-gradient-2"/><linearGradient id="linear-gradient-4" x1="-968.1" y1="725.59" x2="-959.88" y2="717.36" gradientTransform="translate(-13095.37 31115.69) rotate(180) scale(13.95 43)" gradientUnits="userSpaceOnUse"><stop offset="0" stop-color="#99c985"/><stop offset="1" stop-color="#017b7b"/></linearGradient><linearGradient id="linear-gradient-5" x1="-889.78" y1="727.9" x2="-883.23" y2="721.35" gradientTransform="translate(-21665.4 41396.04) rotate(180) scale(24.9 57)" gradientUnits="userSpaceOnUse"><stop offset="0" stop-color="#287b9b"/><stop offset="1" stop-color="#d3e19d"/></linearGradient><linearGradient id="linear-gradient-6" x1="-835.76" y1="731.45" x2="-829.48" y2="725.17" gradientTransform="translate(-38180.14 62697.37) rotate(180) scale(45.82 86)" gradientUnits="userSpaceOnUse"><stop offset="0" stop-color="#c6d870"/><stop offset="1" stop-color="#017b7b"/></linearGradient><linearGradient id="linear-gradient-7" x1="-837" y1="731.05" x2="-830.01" y2="724.07" xlink:href="#linear-gradient-6"/><linearGradient id="linear-gradient-8" x1="-873.25" y1="720.69" x2="-864.07" y2="711.51" gradientTransform="translate(-24088.52 20088.37) rotate(180) scale(27.89 28)" gradientUnits="userSpaceOnUse"><stop offset="0" stop-color="#84cdde"/><stop offset="1" stop-color="#9ac97d"/></linearGradient><linearGradient id="linear-gradient-9" x1="-846.21" y1="724.21" x2="-838.93" y2="716.92" gradientTransform="translate(-34204.87 28196.56) rotate(180) scale(40.84 39)" gradientUnits="userSpaceOnUse"><stop offset="0" stop-color="#a6bdbd"/><stop offset="1" stop-color="#e7dcca"/></linearGradient><linearGradient id="linear-gradient-10" x1="-849.16" y1="723.48" x2="-840.37" y2="714.69" gradientTransform="translate(-31111.4 28196.56) rotate(180) scale(36.86 39)" gradientUnits="userSpaceOnUse"><stop offset="0" stop-color="#017b8a"/><stop offset="1" stop-color="#eceb98"/></linearGradient><linearGradient id="linear-gradient-11" x1="-946.01" y1="731.52" x2="-938.67" y2="724.18" gradientTransform="translate(-15356.91 48732.03) rotate(180) scale(16.93 67)" gradientUnits="userSpaceOnUse"><stop offset="0" stop-color="#82cdde"/><stop offset="1" stop-color="#8dd0e0"/></linearGradient><linearGradient id="linear-gradient-12" x1="-953.68" y1="725.61" x2="-946.77" y2="718.69" gradientTransform="translate(-13880.49 35519.83) rotate(180) scale(14.94 49)" gradientUnits="userSpaceOnUse"><stop offset="0" stop-color="#137e96"/><stop offset="1" stop-color="#067b8d"/></linearGradient><linearGradient id="linear-gradient-13" x1="-844.9" y1="724.42" x2="-841.4" y2="720.92" gradientTransform="translate(-34204.87 35519.83) rotate(180) scale(40.84 49)" gradientUnits="userSpaceOnUse"><stop offset="0" stop-color="#4ab8a7"/><stop offset="1" stop-color="#2cafa5"/></linearGradient><linearGradient id="linear-gradient-14" x1="-829.42" y1="716.08" x2="-825.16" y2="711.81" gradientTransform="translate(-45148.2 19349.35) rotate(180) scale(54.79 27)" gradientUnits="userSpaceOnUse"><stop offset="0" stop-color="#15849b"/><stop offset="1" stop-color="#74c9e3"/></linearGradient><linearGradient id="linear-gradient-15" x1="-881.7" y1="725.89" x2="-877.55" y2="721.75" gradientTransform="translate(-23952.05 36971.87) rotate(180) scale(27.89 51)" xlink:href="#linear-gradient-12"/><linearGradient id="linear-gradient-16" x1="-955.71" y1="726.46" x2="-948.69" y2="719.44" gradientTransform="translate(-14592.7 31851.7) rotate(180) scale(15.94 44)" gradientUnits="userSpaceOnUse"><stop offset="0" stop-color="#28adba"/><stop offset="1" stop-color="#3eacac"/></linearGradient><linearGradient id="linear-gradient-17" x1="-877.09" y1="723.84" x2="-873.28" y2="720.04" gradientTransform="translate(-24761.08 33321.74) rotate(180) scale(28.89 46)" gradientUnits="userSpaceOnUse"><stop offset="0" stop-color="#dfbf93"/><stop offset="1" stop-color="#edec9f"/></linearGradient><linearGradient id="linear-gradient-18" x1="-856.35" y1="726.47" x2="-852.62" y2="722.74" gradientTransform="translate(-31011.78 41396.04) rotate(180) scale(36.86 57)" gradientUnits="userSpaceOnUse"><stop offset="0" stop-color="#d7e39e"/><stop offset="1" stop-color="#2d939f"/></linearGradient></defs><title>Recurso 2</title><g class="cls-1"><g id="Capa_2" data-name="Capa 2"><g id="Capa_1-2" data-name="Capa 1"><polygon class="cls-2" points="331.71 74.91 333.62 71.62 364.88 17.74 438.13 40.74 456.48 74.91 331.71 74.91"/><polygon class="cls-3" points="0 0 7.92 5.25 0 11.71 0 0"/><polygon class="cls-4" points="114.25 74.91 0 74.91 0 11.72 7.92 5.25 64.1 42.52 64.7 42.03 79.59 51.91 103.39 58.7 100.26 65.63 114.25 74.91"/><polygon class="cls-5" points="285.64 74.91 295.26 49.66 360.88 63.19 418.86 57.77 421.82 74.91 285.64 74.91"/><polygon class="cls-6" points="331.71 74.91 333.62 71.62 364.88 17.74 438.13 40.74 496.56 33.47 506.09 74.91 331.71 74.91"/><polygon class="cls-7" points="0 0 7.92 5.25 0 11.71 0 0"/><polygon class="cls-8" points="0 74.91 0 11.72 7.92 5.25 64.1 42.52 64.7 42.03 114.25 74.91 0 74.91"/><polygon class="cls-9" points="221.65 74.91 0 74.91 0 68.4 17.93 34.34 103.39 58.7 173.58 7.28 243.48 58.92 221.65 74.91"/><polygon class="cls-10" points="194.72 74.91 206.85 54.86 268.06 74.91 194.72 74.91"/><polygon class="cls-11" points="60.89 74.91 55.02 45.79 158.02 34.56 166.15 74.91 60.89 74.91"/><polygon class="cls-12" points="591.92 74.91 554.56 74.91 569.98 44.91 591.92 2.23 591.92 74.91"/><polygon class="cls-13" points="285.64 74.91 295.26 49.66 304.83 51.63 305.7 49.72 380.47 42.95 385.81 74.91 285.64 74.91"/><polygon class="cls-14" points="194.72 74.91 206.85 54.86 232.04 63.12 230.93 56.48 305.7 49.72 327.01 74.91 194.72 74.91"/><polygon class="cls-15" points="104.72 74.91 103.39 58.7 173.58 7.28 203.13 29.11 264.5 1.01 305.7 49.72 307.77 74.91 104.72 74.91"/><polygon class="cls-16" points="591.92 74.91 554.56 74.91 569.98 44.91 591.92 2.23 591.92 74.91"/><polygon class="cls-17" points="591.92 74.91 551.07 74.91 574.23 65.44 591.92 66.86 591.92 74.91"/><polygon class="cls-18" points="504.87 74.91 507.09 60.02 574.23 65.44 591.18 74.91 504.87 74.91"/><polygon class="cls-19" points="426.66 74.91 438.13 40.74 496.56 33.47 503.48 63.58 528.17 39.69 574.23 65.44 571.05 74.91 426.66 74.91"/></g></g></g></svg>