<svg xmlns="http://www.w3.org/2000/svg" xmlns:xlink="http://www.w3.org/1999/xlink" viewBox="0 0 341.67 288"><defs><style>.cls-1{fill:none;}.cls-2{isolation:isolate;}.cls-3{clip-path:url(#clip-path);}.cls-4{fill:#fff;mix-blend-mode:multiply;}.cls-5{fill:#151821;}.cls-6{fill:#3c4043;}.cls-7{fill:#56595d;}</style><clipPath id="clip-path"><polygon class="cls-1" points="-1.02 -0.51 341.65 -0.51 341.65 288.51 -1.02 288.47 -1.02 -0.51"/></clipPath></defs><title>Mesa de trabajo 152</title><g class="cls-2"><g id="Layer_1" data-name="Layer 1"><g class="cls-3"><path class="cls-4" d="M79.94,65.8q36-19.09,71.79-38.08l-5.23,1.52L20.23,65.8Z"/><path class="cls-4" d="M266.51-33.15,151.73,27.72,266.51-5.51Z"/><path class="cls-4" d="M266.51-35h-.13L152.08,27.58,266.51-6.85Z"/><path class="cls-4" d="M82.28,65.8q35-19.15,69.8-38.22L25,65.8Z"/><path class="cls-4" d="M84.56,65.8l67.86-38.37L29.6,65.8Z"/><path class="cls-4" d="M266.51-35h-3.65L152.42,27.43,266.51-8.21Z"/><path class="cls-4" d="M86.78,65.8l66-38.51L33.92,65.8Z"/><path class="cls-4" d="M266.51-35h-7.05L152.74,27.29,266.51-9.58Z"/><path class="cls-4" d="M266.51-35h-10L153,27.16l113.49-38Z"/><path class="cls-4" d="M88.73,65.8,153,27.16,37.62,65.8Z"/><path class="cls-4" d="M266.51-35H253.26L153.31,27l113.2-39.29Z"/><path class="cls-4" d="M90.84,65.8,153.31,27,41.56,65.8Z"/><path class="cls-4" d="M92.9,65.8l60.7-38.92L45.3,65.8Z"/><path class="cls-4" d="M266.51-35H250.13L153.6,26.88,266.51-13.7Z"/><path class="cls-4" d="M94.91,65.8l58.94-39-105,39Z"/><path class="cls-4" d="M266.51-35H247.09L153.85,26.76,266.51-15.16Z"/><path class="cls-5" d="M325.42-29.9H53.23L124,5.63,192,39.83l133.42-51.4Z"/><path class="cls-4" d="M194.18-35,155.93,25.36,235.67-35Z"/><path class="cls-4" d="M130.31,65.8l23-36.3c.88-1.37,1.76-2.76,2.63-4.14L102.51,65.8Z"/><path class="cls-4" d="M131.68,65.8l21.69-36.2,2.52-4.21L104.32,65.8Z"/><path class="cls-4" d="M192.08-35l-36.19,60.4L233-35Z"/><path class="cls-4" d="M190-35,155.83,25.45,230.36-35Z"/><path class="cls-4" d="M133,65.8l20.39-36.09,2.41-4.26L106.09,65.8Z"/><path class="cls-4" d="M134.36,65.8q9.46-17.79,19.12-36l2.29-4.31q-24.09,20.25-48,40.3Z"/><path class="cls-4" d="M187.92-35,155.77,25.5l72-60.51Z"/><path class="cls-4" d="M186.05-35,155.71,25.56,225.5-35Z"/><path class="cls-4" d="M135.56,65.8l18-35.88c.72-1.45,1.46-2.91,2.18-4.36L109.35,65.8Z"/><path class="cls-4" d="M136.86,65.8,153.58,30l2-4.38L111,65.8Z"/><path class="cls-4" d="M184-35q-14.46,30.9-28.37,60.66L223-35Z"/><path class="cls-4" d="M138.16,65.8q7.65-17.61,15.48-35.64c.63-1.47,1.27-2.95,1.91-4.42L112.67,65.8Z"/><path class="cls-4" d="M181.93-35Q168.48-4,155.55,25.74l65-60.75Z"/><path class="cls-4" d="M139.44,65.8q7-17.55,14.25-35.51l1.78-4.45-41.19,40Z"/><path class="cls-4" d="M179.88-35,155.47,25.84,218.18-35Z"/><path class="cls-6" d="M171.91,65.8l-1.78-.18-49-5.11-5.25,5.29Z"/><path class="cls-6" d="M6.63-33.41V45l66.44,6.93,97.54,10.17,94.62-95.52Z"/><path class="cls-4" d="M171.64-35H132.42q11,34.5,21.27,66.55l.18-.68Q162.54-1.26,171.64-35Z"/><path class="cls-4" d="M164.63,65.8q-4.9-15.36-10-31.25l-1-3Q149,48.91,144.44,65.8Z"/><path class="cls-4" d="M165.69,65.8l-11-31c-.34-1-.67-1.91-1-2.86q-4.08,17.16-8,33.84Z"/><path class="cls-4" d="M169.58-35H129.93l23.76,67c.08-.31.15-.63.22-.95Q161.55-1.15,169.58-35Z"/><path class="cls-4" d="M167.5-35H127.39L153.71,32.4c.08-.41.16-.81.25-1.22Q160.54-1,167.5-35Z"/><path class="cls-4" d="M166.74,65.8q-5.88-15.09-12-30.71c-.34-.89-.7-1.79-1-2.69q-3.47,16.93-6.84,33.4Z"/><path class="cls-4" d="M165.42-35H124.81q15,35.28,28.93,67.87c.09-.5.17-1,.26-1.51Q159.55-.93,165.42-35Z"/><path class="cls-4" d="M167.78,65.8q-6.37-14.94-13-30.43l-1.07-2.51q-2.88,16.71-5.67,32.94Z"/><path class="cls-4" d="M168.72,65.8,154.86,35.64c-.35-.79-.72-1.57-1.08-2.36q-2.35,16.5-4.64,32.52Z"/><path class="cls-4" d="M163.54-35H122.42c1.61,3.48,3.2,7,4.78,10.4Q141,5.33,153.78,33.28c.09-.59.17-1.18.26-1.78Q158.65-.83,163.54-35Z"/><path class="cls-4" d="M161.43-35H119.74q2.7,5.43,5.36,10.81l28.75,58c.08-.69.15-1.38.23-2.08Z"/><path class="cls-4" d="M169.74,65.8,154.93,35.93l-1.08-2.17q-1.78,16.25-3.53,32Z"/><path class="cls-4" d="M159.31-35H117q3,5.66,6,11.24l31,58,.18-2.38Z"/><path class="cls-4" d="M170.76,65.8Q163,51.28,155,36.23c-.35-.65-.7-1.32-1.05-2q-1.24,16-2.45,31.55Z"/><path class="cls-4" d="M173.13-14.18h-43l6.69,11.71L170,55.59c0-.9.08-1.79.12-2.7Q171.59,20.35,173.13-14.18Z"/><path class="cls-4" d="M171.77,65.8,155.06,36.54l-1-1.78q-.71,15.75-1.39,31Z"/><path class="cls-7" d="M192.19,76.06q.18-16.52.38-33.54.38-32.63.77-67.28H-4.46V76.06Z"/><path class="cls-4" d="M112.34-21.15Q107.35-28,102.23-35H27.45L75.07-5.73l82.61,50.82,5.36,3.3q-3.81-5.23-7.67-10.53Z"/><path class="cls-4" d="M110.21-20.54,99.06-35H21.54L73.06-4.56l84.81,50.13,6,3.53q-4.16-5.41-8.39-10.9Z"/><path class="cls-4" d="M108.07-19.9,95.79-35H15.36L71.07-3.37l87,49.43,6.62,3.75-9.15-11.26Z"/><path class="cls-4" d="M105.93-19.22,92.43-35H8.88L69.1-2.14l89.18,48.69,7.29,4-9.94-11.62Z"/><path class="cls-4" d="M104-18.59,89.32-35H2.77L67.34-1l91.14,48,7.91,4.16q-5.28-5.91-10.66-11.93Q130.91,11.51,104-18.59Z"/><path class="cls-4" d="M101.87-17.86,85.77-35H-4.32L65.4.28l93.31,47.24,8.64,4.37L155.83,39.62Z"/><path class="cls-4" d="M99.74-17.1,82.11-35H-11.77L63.49,1.6,158.94,48l9.41,4.58L155.94,40Z"/><path class="cls-4" d="M97.61-16.31Q88.1-25.52,78.32-35H-19.63L61.6,3l97.58,45.61,10.21,4.77L156.05,40.39Z"/><path class="cls-6" d="M226.16,101.36l-27-25q-29.08-26.92-60.73-56.26L117.32.55H.17V101.36Z"/><path class="cls-4" d="M167.3,62l24.19,3.85h6.71l-37.93-15L54.28,8.68l-97.1-38.55v58.3L28.46,39.8Z"/><path class="cls-4" d="M167.82,62.65l21.24,3.15h9.57L160.56,51.31l-108-41.13Q6.82-7.2-42.82-26.12V31.4L27.41,41.82Z"/><path class="cls-4" d="M168.36,63.37l17.76,2.43H199L160.87,51.88,50.8,11.72-42.82-22.44v56.8l69.22,9.5Z"/><path class="cls-4" d="M168.92,64.09,182.5,65.8h16.84L161.18,52.47,49.1,13.29-42.82-18.84V37.3l68.26,8.63Z"/><path class="cls-4" d="M169.44,64.75l9.06,1h21.1L161.48,53,47.6,14.73-42.82-15.65V40l67.45,7.88Z"/><path class="cls-4" d="M176.11,87.92l3,.32h26.75L167.89,76,52.05,38.79-36.74,10.26v55l66.6,7.08Z"/><path class="cls-4" d="M187.87,100.1h33.75L183.83,88.49,66,52.31-21.16,25.53V80.08l65.8,6.3Z"/><path class="cls-4" d="M180.31,100.61h42.51l-37.49-11L65.6,54.5-20,29.39V83.5L45,89.05Z"/><path class="cls-7" d="M225.12,100.74,188,90.38l-121.68-34L-17.7,32.91v78.2Z"/><path class="cls-4" d="M78.74,65.8,19.83,63.17l-62.65-2.81V65.8Z"/><path class="cls-4" d="M29.65,65.8l-10.26-.35-62.21-2.17V65.8Z"/><path class="cls-4" d="M246.41,315.07l106.92-60.31q-54.46,16.78-106.92,32.92Z"/><path class="cls-4" d="M246.41,316.91h.12l106.48-62L246.41,289Z"/><path class="cls-4" d="M246.41,316.91h3.4l102.88-61.86L246.41,290.36Z"/><path class="cls-4" d="M246.41,316.91H253l99.4-61.72-106,36.53Z"/><path class="cls-4" d="M246.41,316.91h9.36l96.37-61.59L246.41,293Z"/><path class="cls-4" d="M246.41,316.91h12.35l93.1-61.45L246.41,294.37Z"/><path class="cls-4" d="M246.41,316.91h15.26l89.92-61.31L246.41,295.79Z"/><path class="cls-4" d="M246.41,316.91H264.5l86.86-61.19-105,41.52Z"/><path class="cls-7" d="M223.61,312.74H477.16l-65.88-35.2-63.39-33.87L223.61,294.58Z"/><path class="cls-4" d="M313.79,316.91l35.63-59.8-74.28,59.8Z"/><path class="cls-4" d="M315.75,316.91q17.13-30.42,33.71-59.83l-71.81,59.83Z"/><path class="cls-4" d="M317.69,316.91q16.19-30.46,31.83-59.89l-69.43,59.89Z"/><path class="cls-4" d="M319.62,316.91,349.57,257l-67.08,59.94Z"/><path class="cls-4" d="M321.37,316.91l28.25-60-65,60Z"/><path class="cls-4" d="M323.28,316.91q13.47-30.62,26.42-60.09l-62.77,60.09Z"/><path class="cls-4" d="M325.2,316.91q12.53-30.69,24.57-60.18L289.2,316.91Z"/><path class="cls-4" d="M327.11,316.91q11.61-30.75,22.74-60.28l-58.42,60.28Z"/><path class="cls-6" d="M334.53,217l1.66.19,45.62,5.06L386.7,217Z"/><path class="cls-6" d="M524.3,309.86V232.18l-61.89-6.87-90.86-10.07-88.14,94.62Z"/><path class="cls-4" d="M334.78,316.91h36.54Q361.06,282.74,351.51,251c-.06.23-.11.46-.17.68Q343.27,283.48,334.78,316.91Z"/><path class="cls-4" d="M341.31,217q4.57,15.22,9.3,31c.3,1,.6,2,.9,3q4.37-17.19,8.61-33.94Z"/><path class="cls-4" d="M340.33,217q5,15.09,10.24,30.7c.31.94.63,1.88.94,2.83q3.8-17,7.48-33.53Z"/><path class="cls-4" d="M336.71,316.91h36.93q-11.47-34.43-22.13-66.34l-.21.94Q344.19,283.37,336.71,316.91Z"/><path class="cls-4" d="M338.64,316.91H376q-12.72-34.68-24.51-66.78c-.08.41-.15.81-.23,1.21Q345.11,283.26,338.64,316.91Z"/><path class="cls-4" d="M339.35,217l11.17,30.43c.32.88.65,1.77,1,2.66q3.24-16.77,6.37-33.09Z"/><path class="cls-4" d="M340.58,316.91h37.83q-14-34.95-27-67.24l-.24,1.51Q346,283.15,340.58,316.91Z"/><path class="cls-4" d="M338.38,217q5.94,14.82,12.09,30.15l1,2.48q2.69-16.54,5.28-32.63Z"/><path class="cls-4" d="M337.51,217q6.33,14.69,12.9,29.89c.34.77.67,1.55,1,2.33q2.19-16.33,4.33-32.22Z"/><path class="cls-4" d="M336.55,217q6.78,14.53,13.8,29.6c.34.71.67,1.43,1,2.14,1.11-10.73,2.2-21.29,3.29-31.74Z"/><path class="cls-4" d="M335.6,217l14.7,29.3,1,2c.77-10.57,1.53-21,2.28-31.26Z"/><path class="cls-4" d="M334.66,217l15.57,29c.32.59.64,1.18.95,1.77q.66-15.6,1.3-30.76Z"/><path class="cls-4" d="M394,301.93l11.44,15h74.92l-51.89-31.35-81.05-48.95-6.16-3.72L349.78,244Z"/><path class="cls-4" d="M396,301.27l12.57,15.64H486.4l-56.09-32.56-83.08-48.24-6.78-3.93q4.57,5.7,9.24,11.5Z"/><path class="cls-4" d="M397.79,300.64l13.68,16.27H492.1L432,283.22,347,235.66l-7.37-4.12,9.94,11.81Z"/><path class="cls-4" d="M399.78,299.92l15,17h83.91l-64.94-35-86.92-46.79-8.05-4.33L349.52,243Q373.63,270.28,399.78,299.92Z"/><path class="cls-4" d="M401.77,299.16l16.42,17.75h87.45l-70.11-36.27-88.91-46-8.76-4.53,11.55,12.48Z"/><path class="cls-4" d="M403.75,298.38l18,18.53H513L437.29,279.3l-90.9-45.17-9.5-4.72,12.42,12.81Z"/><path class="cls-6" d="M311.12,190.76l25.15,24.78,56.58,55.72,19.66,19.37H521.64V190.76Z"/><path class="cls-4" d="M338.83,220.87,316.3,217h-6.25L345.38,232l98.73,41.67,90.46,38.18V254.07L468.16,242.8Z"/><path class="cls-4" d="M338.34,220.17,318.56,217h-8.92l35.47,14.36,100.64,40.74,88.82,36v-57L469.14,240.8Z"/><path class="cls-4" d="M337.84,219.46,321.3,217h-12l35.53,13.79,102.54,39.79,87.21,33.84V248.19l-64.49-9.41Z"/><path class="cls-4" d="M337.32,218.75,324.67,217H309l35.55,13.22,104.41,38.8,85.63,31.83V245.28L471,236.73Z"/><path class="cls-4" d="M336.84,218.09,328.4,217H308.75l35.51,12.69,106.08,37.9,84.23,30.1V242.66l-62.84-7.81Z"/><path class="cls-4" d="M336.29,217.36l-2.82-.32H308.54l35.4,12.1L451.86,266l82.71,28.27V239.76l-62-7Z"/><path class="cls-4" d="M339.85,217H308.41l35.2,11.5,109.74,35.84,81.22,26.53v-54l-61.3-6.24Z"/><path class="cls-4" d="M348,217h-39.6l34.93,10.89,111.53,34.78,79.76,24.88V234L474,228.49Z"/><path class="cls-4" d="M334.08,197.45l43.5,2.37,46.28,2.53v-4.9Z"/></g></g></g></svg>