<svg xmlns="http://www.w3.org/2000/svg" xmlns:xlink="http://www.w3.org/1999/xlink" viewBox="0 0 612 792"><defs><style>.cls-1{fill:none;}.cls-2{isolation:isolate;}.cls-3{clip-path:url(#clip-path);}.cls-4{fill:#fff;mix-blend-mode:multiply;}.cls-5{fill:#161822;}.cls-6{fill:#3d4144;}.cls-7{fill:#575a5e;}</style><clipPath id="clip-path"><rect class="cls-1" x="1.29" y="-0.13" width="610.54" height="790.77"/></clipPath></defs><title>Mesa de trabajo 1</title><g class="cls-2"><g id="Capa_1" data-name="Capa 1"><g class="cls-3"><path class="cls-4" d="M181.23,196.91l161.88-115L331.3,86.51Q191.82,140.62,46.59,196.91Z"/><path class="cls-4" d="M601.91-101.88,343.11,81.94,601.91-18.41Z"/><path class="cls-4" d="M601.91-107.49h-.3L343.89,81.5l258-104Z"/><path class="cls-4" d="M186.51,196.91,343.89,81.5,57.43,196.91Z"/><path class="cls-4" d="M191.66,196.91l153-115.85-277,115.85Z"/><path class="cls-4" d="M601.91-107.49h-8.23l-249,188.55L601.91-26.56Z"/><path class="cls-4" d="M196.65,196.91,345.39,80.63,77.46,196.91Z"/><path class="cls-4" d="M601.91-107.49H586L345.39,80.63,601.91-30.71Z"/><path class="cls-4" d="M601.91-107.49H579.26L346,80.24,601.91-34.51Z"/><path class="cls-4" d="M201.05,196.91,346,80.24,85.81,196.91Z"/><path class="cls-4" d="M601.91-107.49H572L346.66,79.83,601.91-38.78Z"/><path class="cls-4" d="M205.8,196.91,346.66,79.83l-252,117.08Z"/><path class="cls-4" d="M210.45,196.91,347.31,79.4q-120.4,57.94-244.18,117.51Z"/><path class="cls-4" d="M601.91-107.49H565L347.31,79.4,601.91-43.12Z"/><path class="cls-4" d="M215,196.91,347.88,79,111.21,196.91Z"/><path class="cls-4" d="M601.91-107.49H558.13Q452.92-14.16,347.88,79l254-126.54Z"/><path class="cls-5" d="M601.91-107.49H-11.82Q70.68-52,147.64-.19L301.07,103.05,601.91-52.13Z"/><path class="cls-4" d="M438.81-107.49,352.58,74.79,532.36-107.49Z"/><path class="cls-4" d="M294.8,196.91q25.67-54.27,51.85-109.6c2-4.16,4-8.35,5.93-12.52L232.13,196.91Z"/><path class="cls-4" d="M297.89,196.91,346.79,87.6l5.7-12.71q-58.37,61.22-116.3,122Z"/><path class="cls-4" d="M434.08-107.49,352.49,74.89,526.3-107.49Z"/><path class="cls-4" d="M429.38-107.49l-77,182.55L520.39-107.49Z"/><path class="cls-4" d="M300.93,196.91q22.76-53.94,46-109l5.42-12.86L240.18,196.91Z"/><path class="cls-4" d="M303.94,196.91q21.33-53.74,43.11-108.67c1.72-4.32,3.45-8.68,5.17-13q-54.33,61.13-108.13,121.69Z"/><path class="cls-4" d="M424.7-107.49q-36.9,93-72.48,182.71L514.58-107.49Z"/><path class="cls-4" d="M420.48-107.49q-34.83,93.14-68.4,182.9l157.36-182.9Z"/><path class="cls-4" d="M306.63,196.91,347.17,88.55c1.62-4.36,3.27-8.77,4.91-13.14L247.54,196.91Z"/><path class="cls-4" d="M309.57,196.91l37.71-108c1.54-4.39,3.08-8.83,4.63-13.23q-50.58,61-100.58,121.24Z"/><path class="cls-4" d="M415.85-107.49Q383.27-14.16,351.91,75.67q75.34-90.84,151.93-183.16Z"/><path class="cls-4" d="M312.49,196.91Q329.76,143.7,347.4,89.28L351.72,76,255,196.91Z"/><path class="cls-4" d="M411.2-107.49,351.72,76,498.35-107.49Z"/><path class="cls-4" d="M315.38,196.91q15.87-53,32.14-107.24c1.32-4.45,2.67-9,4-13.42L258.66,196.91Z"/><path class="cls-4" d="M406.57-107.49l-55,183.74L493-107.49Z"/><path class="cls-6" d="M388.61,196.91l-4-.56L274.16,180.92c-3.94,5.35-7.87,10.66-11.82,16Z"/><path class="cls-6" d="M-95.58-107.49V129.29L54.24,150.22l219.92,30.7Q379.18,39,487.51-107.49Z"/><path class="cls-4" d="M388-107.49H299.57q24.85,104.16,47.95,201c.14-.69.27-1.37.41-2.07Q367.48-5.55,388-107.49Z"/><path class="cls-4" d="M372.2,196.91q-11.07-46.38-22.52-94.37l-2.16-9.08q-10.57,52.43-20.86,103.45Z"/><path class="cls-4" d="M374.58,196.91q-12.18-46-24.78-93.56l-2.28-8.61L329.41,196.91Z"/><path class="cls-4" d="M383.35-107.49H294Q321.73-2.57,347.52,94.74c.17-1,.33-1.91.5-2.87Q365.24-5.25,383.35-107.49Z"/><path class="cls-4" d="M378.67-107.49H288.23L347.56,96.07c.19-1.25.37-2.47.56-3.71Q363-4.93,378.67-107.49Z"/><path class="cls-4" d="M377,196.91q-13.27-45.57-27-92.73c-.79-2.69-1.58-5.41-2.36-8.11q-7.81,51.12-15.42,100.84Z"/><path class="cls-4" d="M374-107.49H282.39Q316.32-1,347.64,97.45c.19-1.53.38-3,.58-4.58Q360.75-4.6,374-107.49Z"/><path class="cls-4" d="M379.3,196.91Q364.93,151.77,350.05,105c-.8-2.51-1.61-5-2.41-7.58q-6.48,50.43-12.79,99.46Z"/><path class="cls-4" d="M381.4,196.91l-31.23-91.08-2.44-7.12q-5.31,49.8-10.47,98.2Z"/><path class="cls-4" d="M369.72-107.49H277L287.8-76.07,347.73,98.71c.2-1.79.38-3.57.58-5.37Q358.71-4.28,369.72-107.49Z"/><path class="cls-4" d="M365-107.49H271q6.09,16.41,12.09,32.64,33.54,90.55,64.82,175c.18-2.11.35-4.18.52-6.28Q356.46-4,365-107.49Z"/><path class="cls-4" d="M383.72,196.91l-33.41-90.19c-.8-2.18-1.62-4.38-2.43-6.55q-4,49.05-8,96.74Z"/><path class="cls-4" d="M360.19-107.49H264.77q6.81,17.07,13.53,34,36.12,90.69,69.77,175.18c.15-2.41.28-4.79.42-7.2Q354.17-3.61,360.19-107.49Z"/><path class="cls-4" d="M386,196.91l-35.56-89.28c-.8-2-1.59-4-2.39-6q-2.79,48.3-5.52,95.26Z"/><path class="cls-4" d="M355.37-107.49H258.45l15.08,35.36q38.75,90.81,74.78,175.3c.09-2.73.18-5.41.27-8.14Q351.87-3.25,355.37-107.49Z"/><path class="cls-4" d="M388.3,196.91l-37.69-88.35c-.76-1.79-1.53-3.6-2.3-5.39q-1.59,47.55-3.14,93.74Z"/><path class="cls-7" d="M347.82,196.91q.42-49.86.86-101.27.84-98.49,1.73-203.13h-446v304.4Z"/><path class="cls-4" d="M254.3-65.62l-22.8-41.87H62.88L170.25-19.06,356.52,134.36c4.05,3.34,8.06,6.65,12.09,10l-17.3-31.79Z"/><path class="cls-4" d="M249.48-63.78l-25.14-43.71H49.56L165.71-15.55,357,135.81l13.47,10.65-18.93-32.9Z"/><path class="cls-4" d="M244.66-61.85Q231-84.43,217-107.49H35.62L161.23-11.94,357.41,137.28l14.91,11.34-20.63-34Z"/><path class="cls-4" d="M239.84-59.81l-30.45-47.68H21L156.79-8.24l201.09,147,16.42,12q-11.1-17.41-22.39-35.07Z"/><path class="cls-4" d="M235.49-57.91q-16.37-24.5-33.12-49.58H7.22L152.81-4.81q107.73,76,205.52,145l17.84,12.59-24.06-36Q296.16,33,235.49-57.91Z"/><path class="cls-4" d="M230.68-55.7l-36.32-51.79H-8.76Q72.55-52.38,148.45-.92L358.84,141.69l19.48,13.21-26-37.06Z"/><path class="cls-4" d="M225.87-53.4l-39.76-54.09H-25.57Q62.36-50.22,144.14,3.06,257,76.61,359.36,143.25l21.21,13.82-28-38.07Q291.86,36.36,225.87-53.4Z"/><path class="cls-4" d="M221.07-51q-21.43-27.84-43.48-56.48H-43.29Q51.83-48,139.88,7.13l220,137.71,23,14.39Q368,139.9,352.85,120.17,289.71,38.17,221.07-51Z"/><path class="cls-6" d="M414,196.91,353.12,121.4l-137-169.87q-23.44-29.06-47.59-59H-95.58v304.4Z"/><path class="cls-4" d="M378.2,185.26l54.55,11.65h15.13l-85.53-45.47-239-127L-95.58-92v176L65.15,118.4Z"/><path class="cls-4" d="M379.39,187.4l47.88,9.51h21.58L363,153.15,119.41,29l-215-109.6V93L62.78,124.49Z"/><path class="cls-4" d="M380.61,189.55l40,7.36h29.07l-86-42L115.52,33.62-95.58-69.53V102L60.5,130.67Z"/><path class="cls-4" d="M381.86,191.73l30.61,5.18h38l-86-40.27Q244.32,100.44,111.69,38.36l-207.27-97V110.84L58.35,136.92Z"/><path class="cls-4" d="M383,193.72l20.45,3.19H451l-85.95-38.67L108.31,42.71-95.58-49V118.84L56.51,142.63Z"/><path class="cls-4" d="M384.35,195.94l6.84,1h60.33L365.84,160,104.62,47.62-95.58-38.54v166.2L54.59,149Z"/><path class="cls-4" d="M375.75,196.91h76.09l-85.21-35L101,52.61-95.58-28.24V136.47l148.37,19Z"/><path class="cls-4" d="M356.13,196.91H452l-84.53-33.19q-128.24-50.37-270-106L-95.58-18.11V145.26L51.11,162Z"/><path class="cls-7" d="M412.68,196.91l-83.63-31.28L54.7,63Q-36.9,28.74-134.83-7.89v236.1Z"/><path class="cls-4" d="M178.52,196.91,45.7,189l-141.28-8.48v16.44Z"/><path class="cls-4" d="M67.83,196.91l-23.14-1.08-140.27-6.55v7.63Z"/><path class="cls-4" d="M381.29,871.59l258.8-183.82q-131.83,51.13-258.8,100.35Z"/><path class="cls-4" d="M381.29,877.2h.29l257.74-189-258,104Z"/><path class="cls-4" d="M381.29,877.2h8.23l249-188.55L381.29,796.27Z"/><path class="cls-4" d="M381.29,877.2H397.2L637.82,689.08,381.29,800.42Z"/><path class="cls-4" d="M381.29,877.2h22.65L637.2,689.47Q507.15,747.78,381.29,804.22Z"/><path class="cls-4" d="M381.29,877.2h29.89L636.54,689.88,381.29,808.49Z"/><path class="cls-4" d="M381.29,877.2h36.93L635.89,690.31,381.29,812.83Z"/><path class="cls-4" d="M381.29,877.2h43.78L635.32,690.7l-254,126.54Z"/><path class="cls-7" d="M381.29,877.2H995q-82.49-55.5-159.45-107.3L682.13,666.66,381.29,821.84Z"/><path class="cls-4" d="M544.39,877.2q43.82-92.61,86.24-182.28L450.84,877.2Z"/><path class="cls-4" d="M549.12,877.2l81.6-182.38L456.89,877.2Z"/><path class="cls-4" d="M553.82,877.2l77-182.55-168,182.55Z"/><path class="cls-4" d="M558.5,877.2q36.9-93,72.49-182.71L468.62,877.2Z"/><path class="cls-4" d="M562.72,877.2q34.83-93.13,68.4-182.9L473.76,877.2Z"/><path class="cls-4" d="M567.35,877.2Q599.95,783.87,631.3,694L479.36,877.2Z"/><path class="cls-4" d="M572,877.2l59.48-183.44L484.85,877.2Z"/><path class="cls-4" d="M576.63,877.2q28.08-93.74,55-183.74L490.25,877.2Z"/><path class="cls-6" d="M594.59,572.8l4,.56L709,588.78l11.83-16Z"/><path class="cls-6" d="M1078.78,877.2V640.42L929,619.49,709,588.78,495.69,877.2Z"/><path class="cls-4" d="M595.2,877.2h88.43q-24.84-104.16-47.94-201l-.42,2.07Q615.74,775.27,595.2,877.2Z"/><path class="cls-4" d="M611,572.8q11.09,46.38,22.52,94.37l2.17,9.08L656.53,572.8Z"/><path class="cls-4" d="M608.62,572.8q12.18,46,24.78,93.56c.76,2.86,1.52,5.75,2.28,8.62q9.18-51.79,18.1-102.18Z"/><path class="cls-4" d="M599.85,877.2h89.41Q661.45,772.28,635.68,675l-.51,2.86Q618,775,599.85,877.2Z"/><path class="cls-4" d="M604.53,877.2H695Q664.17,771.5,635.65,673.64c-.2,1.24-.38,2.47-.57,3.71Q620.21,774.64,604.53,877.2Z"/><path class="cls-4" d="M606.25,572.8q13.29,45.57,27,92.73c.78,2.69,1.57,5.41,2.37,8.11q7.82-51.12,15.41-100.84Z"/><path class="cls-4" d="M609.24,877.2h91.57L635.57,672.26c-.2,1.53-.4,3-.6,4.58Q622.46,774.31,609.24,877.2Z"/><path class="cls-4" d="M603.91,572.8q14.37,45.13,29.25,91.88c.8,2.51,1.6,5.05,2.41,7.58q6.48-50.43,12.78-99.46Z"/><path class="cls-4" d="M601.8,572.8q15.33,44.75,31.23,91.09l2.44,7.11q5.31-49.8,10.47-98.2Z"/><path class="cls-4" d="M599.48,572.8,632.89,663l2.42,6.54q4.05-49,8-96.74Z"/><path class="cls-4" d="M597.18,572.8q17.48,43.85,35.57,89.29c.78,2,1.58,4,2.38,6q2.8-48.3,5.51-95.26Z"/><path class="cls-4" d="M594.9,572.8l37.69,88.35,2.3,5.39Q636.48,619,638,572.8Z"/><path class="cls-4" d="M738.55,831.55q13.68,22.59,27.68,45.65H947.58L822,781.65,625.8,632.43l-14.92-11.34,20.62,34Z"/><path class="cls-4" d="M743.37,829.52q15.06,23.6,30.44,47.68H962.19L826.41,778l-201.09-147-16.42-12L631.29,654Q685.08,738.24,743.37,829.52Z"/><path class="cls-4" d="M747.71,827.61q16.37,24.52,33.12,49.59H976L830.39,774.52l-205.51-145q-9-6.31-17.84-12.58l24.05,36Z"/><path class="cls-4" d="M752.52,825.4q17.93,25.59,36.32,51.8H992L834.74,770.64,624.37,628l-19.49-13.21q12.89,18.36,26,37.06Z"/><path class="cls-4" d="M757.33,823.11l39.76,54.09h211.68L839.06,766.65,623.84,626.46l-21.21-13.82,28,38.07Z"/><path class="cls-4" d="M762.13,820.72l43.49,56.48h220.87q-95.11-59.52-183.16-114.62l-220-137.71-23-14.39,30.07,39.06Q693.48,731.55,762.13,820.72Z"/><path class="cls-6" d="M569.2,572.8l60.88,75.51L767,818.18l47.6,59h264.15V572.8Z"/><path class="cls-4" d="M605,584.45,550.46,572.8H535.32l85.53,45.47,239,127,219,116.38v-176L918.05,651.31Z"/><path class="cls-4" d="M603.81,582.31l-47.88-9.51H534.34l85.85,43.76,243.6,124.17q103.05,52.53,215,109.6V676.67L920.42,645.22Z"/><path class="cls-4" d="M602.6,580.17l-40.05-7.37H533.48l86,42L867.68,736.09l211.1,103.15V667.75L922.7,639.05Q754.47,608.09,602.6,580.17Z"/><path class="cls-4" d="M601.35,578l-30.62-5.19h-38l86,40.27Q738.9,669.29,871.51,731.35l207.27,97V658.87L924.84,632.79Z"/><path class="cls-4" d="M600.17,576l-20.43-3.2H532.17l86,38.67q122,54.9,256.78,115.53l203.88,91.73V650.87L926.69,627.08Z"/><path class="cls-4" d="M598.85,573.77l-6.84-1H531.69l85.67,36.87L878.58,722.09q96.45,41.51,200.2,86.16V642.05L928.61,620.69Z"/><path class="cls-4" d="M607.45,572.8H531.36q41.91,17.24,85.21,35.05L882.19,717.09,1078.78,798V633.25l-148.37-19Z"/><path class="cls-4" d="M627.07,572.8H531.21L615.76,606q128.22,50.36,270,106l193.06,75.81V624.45L932.09,607.68Z"/></g></g></g></svg>