<svg xmlns="http://www.w3.org/2000/svg" xmlns:xlink="http://www.w3.org/1999/xlink" viewBox="0 0 595.28 113.44"><defs><style>.cls-1{isolation:isolate;}.cls-10,.cls-11,.cls-12,.cls-13,.cls-14,.cls-15,.cls-16,.cls-17,.cls-18,.cls-19,.cls-2,.cls-20,.cls-21,.cls-3,.cls-4,.cls-5,.cls-6,.cls-7,.cls-8,.cls-9{mix-blend-mode:multiply;}.cls-2{fill:url(#linear-gradient);}.cls-3{fill:url(#linear-gradient-2);}.cls-4{fill:url(#linear-gradient-3);}.cls-5{fill:url(#linear-gradient-4);}.cls-6{fill:url(#linear-gradient-5);}.cls-7{fill:url(#linear-gradient-6);}.cls-8{fill:url(#linear-gradient-7);}.cls-9{fill:url(#linear-gradient-8);}.cls-10{fill:url(#linear-gradient-9);}.cls-11{fill:url(#linear-gradient-10);}.cls-12{fill:url(#linear-gradient-11);}.cls-13{fill:url(#linear-gradient-12);}.cls-14{fill:url(#linear-gradient-13);}.cls-15{fill:url(#linear-gradient-14);}.cls-16{fill:url(#linear-gradient-15);}.cls-17{fill:url(#linear-gradient-16);}.cls-18{fill:url(#linear-gradient-17);}.cls-19{fill:url(#linear-gradient-18);}.cls-20{fill:url(#linear-gradient-19);}.cls-21{fill:url(#linear-gradient-20);}</style><linearGradient id="linear-gradient" x1="-821.86" y1="1505.65" x2="-817" y2="1500.79" gradientTransform="matrix(-21, 0, 0, 48, -16828.52, -72189.52)" gradientUnits="userSpaceOnUse"><stop offset="0" stop-color="#91c78b"/><stop offset="1" stop-color="#a0cc88"/></linearGradient><linearGradient id="linear-gradient-2" x1="-791.84" y1="1507.02" x2="-786.35" y2="1501.53" gradientTransform="matrix(-55, 0, 0, 50, -43473.48, -75174.31)" gradientUnits="userSpaceOnUse"><stop offset="0" stop-color="#80ccdd"/><stop offset="1" stop-color="#93c679"/></linearGradient><linearGradient id="linear-gradient-3" x1="-792.97" y1="1506.04" x2="-787.39" y2="1500.46" xlink:href="#linear-gradient-2"/><linearGradient id="linear-gradient-4" x1="-841.99" y1="1508.77" x2="-833.68" y2="1500.47" gradientTransform="matrix(-14, 0, 0, 43, -11378.52, -64702.52)" gradientUnits="userSpaceOnUse"><stop offset="0" stop-color="#99c985"/><stop offset="1" stop-color="#017b7b"/></linearGradient><linearGradient id="linear-gradient-5" x1="-817.79" y1="1506.53" x2="-811.07" y2="1499.81" gradientTransform="matrix(-25, 0, 0, 57, -19944.52, -85683.97)" gradientUnits="userSpaceOnUse"><stop offset="0" stop-color="#287b9b"/><stop offset="1" stop-color="#d3e19d"/></linearGradient><linearGradient id="linear-gradient-6" x1="-795.18" y1="1505.68" x2="-788.36" y2="1498.86" gradientTransform="matrix(-46, 0, 0, 86, -36453.5, -129152.38)" gradientUnits="userSpaceOnUse"><stop offset="0" stop-color="#c6d870"/><stop offset="1" stop-color="#017b7b"/></linearGradient><linearGradient id="linear-gradient-7" x1="-796.22" y1="1504.85" x2="-789.24" y2="1497.88" xlink:href="#linear-gradient-6"/><linearGradient id="linear-gradient-8" x1="-808.39" y1="1514.31" x2="-799.08" y2="1505.01" gradientTransform="matrix(-28, 0, 0, 28, -22367.52, -42209.55)" gradientUnits="userSpaceOnUse"><stop offset="0" stop-color="#84cdde"/><stop offset="1" stop-color="#9ac97d"/></linearGradient><linearGradient id="linear-gradient-9" x1="-841.49" y1="1515.14" x2="-835.97" y2="1509.62" gradientTransform="matrix(-16, 0, 0, 18, -12874.52, -27244.62)" gradientUnits="userSpaceOnUse"><stop offset="0" stop-color="#017b8a"/><stop offset="1" stop-color="#277a7a"/></linearGradient><linearGradient id="linear-gradient-10" x1="-801.23" y1="1509.07" x2="-793.93" y2="1501.77" gradientTransform="matrix(-41, 0, 0, 39, -32479.5, -58725.88)" gradientUnits="userSpaceOnUse"><stop offset="0" stop-color="#a6bdbd"/><stop offset="1" stop-color="#e7dcca"/></linearGradient><linearGradient id="linear-gradient-11" x1="-799.57" y1="1508.8" x2="-790.15" y2="1499.38" gradientTransform="matrix(-37, 0, 0, 39, -29387.5, -58725.88)" gradientUnits="userSpaceOnUse"><stop offset="0" stop-color="#017b8a"/><stop offset="1" stop-color="#eceb98"/></linearGradient><linearGradient id="linear-gradient-12" x1="-841.97" y1="1508.49" x2="-833.97" y2="1500.5" gradientTransform="matrix(-17, 0, 0, 67, -13638.52, -100663.9)" gradientUnits="userSpaceOnUse"><stop offset="0" stop-color="#82cdde"/><stop offset="1" stop-color="#8dd0e0"/></linearGradient><linearGradient id="linear-gradient-13" x1="-816.93" y1="1508.09" x2="-807.64" y2="1498.8" gradientTransform="matrix(-25, 0, 0, 42, -19944.52, -63241.06)" gradientUnits="userSpaceOnUse"><stop offset="0" stop-color="#e3e89d"/><stop offset="1" stop-color="#90c891"/></linearGradient><linearGradient id="linear-gradient-14" x1="-835.8" y1="1506.52" x2="-828.72" y2="1499.44" gradientTransform="matrix(-15, 0, 0, 49, -12163.52, -73692.91)" gradientUnits="userSpaceOnUse"><stop offset="0" stop-color="#137e96"/><stop offset="1" stop-color="#067b8d"/></linearGradient><linearGradient id="linear-gradient-15" x1="-799.76" y1="1505.29" x2="-796.13" y2="1501.66" gradientTransform="matrix(-41, 0, 0, 49, -32479.5, -73692.91)" gradientUnits="userSpaceOnUse"><stop offset="0" stop-color="#4ab8a7"/><stop offset="1" stop-color="#2cafa5"/></linearGradient><linearGradient id="linear-gradient-16" x1="-795.14" y1="1510.88" x2="-790.33" y2="1506.07" gradientTransform="matrix(-55, 0, 0, 27, -43418.48, -40706.16)" gradientUnits="userSpaceOnUse"><stop offset="0" stop-color="#15849b"/><stop offset="1" stop-color="#74c9e3"/></linearGradient><linearGradient id="linear-gradient-17" x1="-817.26" y1="1506.57" x2="-812.53" y2="1501.84" gradientTransform="matrix(-28, 0, 0, 51, -22230.52, -76673.7)" xlink:href="#linear-gradient-14"/><linearGradient id="linear-gradient-18" x1="-844.53" y1="1509.69" x2="-837.38" y2="1502.55" gradientTransform="matrix(-16, 0, 0, 44, -12874.52, -66202.92)" gradientUnits="userSpaceOnUse"><stop offset="0" stop-color="#28adba"/><stop offset="1" stop-color="#3eacac"/></linearGradient><linearGradient id="linear-gradient-19" x1="-814.48" y1="1505.77" x2="-810.7" y2="1501.99" gradientTransform="matrix(-29, 0, 0, 46, -23039.52, -69201.7)" gradientUnits="userSpaceOnUse"><stop offset="0" stop-color="#dfbf93"/><stop offset="1" stop-color="#edec9f"/></linearGradient><linearGradient id="linear-gradient-20" x1="-806.51" y1="1505.1" x2="-802.75" y2="1501.35" gradientTransform="matrix(-37, 0, 0, 57, -29287.5, -85683.97)" gradientUnits="userSpaceOnUse"><stop offset="0" stop-color="#d7e39e"/><stop offset="1" stop-color="#2d939f"/></linearGradient></defs><title>Recurso 1</title><g class="cls-1"><g id="Capa_2" data-name="Capa 2"><g id="Capa_1-2" data-name="Capa 1"><polygon class="cls-2" points="324.03 0 334.26 22.26 365.7 90.67 439.36 61.47 465.5 0 324.03 0"/><polygon class="cls-3" points="0 112.15 6.72 106.53 0 99.61 0 112.15"/><polygon class="cls-4" points="0 99.61 6.72 106.52 63.22 59.2 63.81 59.82 78.79 47.28 102.72 38.66 99.58 29.86 120.98 11.94 109.39 0 0 0 0 99.61"/><polygon class="cls-5" points="280.55 0 295.69 50.14 361.68 32.96 419.99 39.83 425.42 0 280.55 0"/><polygon class="cls-6" points="511.01 0 324.03 0 334.26 22.26 365.7 90.67 439.36 61.47 498.13 70.7 508.07 16.11 508.07 16.11 511.01 0"/><polygon class="cls-7" points="0 112.15 6.72 106.53 0 99.61 0 112.15"/><polygon class="cls-8" points="0 99.61 6.72 106.52 63.22 59.2 63.81 59.82 120.98 11.94 109.39 0 0 0 0 99.61"/><polygon class="cls-9" points="0 29.35 16.79 69.59 102.72 38.66 173.32 103.94 243.61 38.38 202.11 0 0 0 0 29.35"/><polygon class="cls-10" points="552.72 0 565.38 10.98 576.41 0 552.72 0"/><polygon class="cls-11" points="185.91 0 206.77 43.53 282.61 12.17 312.06 0 185.91 0"/><polygon class="cls-12" points="62.87 0 54.09 55.05 157.67 69.3 168.72 0 62.87 0"/><polygon class="cls-13" points="595.28 0 549.09 0 571.96 56.17 595.28 113.44 595.28 0"/><polygon class="cls-14" points="400.71 0 404.1 10.54 442.1 0 400.71 0"/><polygon class="cls-15" points="280.55 0 295.69 50.14 305.31 47.63 306.19 50.07 381.38 58.66 389.14 0 280.55 0"/><polygon class="cls-16" points="185.91 0 206.77 43.53 232.11 33.06 230.99 41.47 306.19 50.07 339.73 0 185.91 0"/><polygon class="cls-17" points="105.24 0 102.72 38.66 173.32 103.94 203.03 76.23 264.75 111.91 306.19 50.07 309.43 0 105.24 0"/><polygon class="cls-18" points="595.28 0 549.09 0 571.96 56.17 595.28 113.44 595.28 0"/><polygon class="cls-19" points="595.28 0 517.96 0 576.23 30.11 595.28 28.17 595.28 0"/><polygon class="cls-20" points="595.28 0 504.35 0 508.71 36.98 576.23 30.11 595.28 16.67 595.28 0"/><polygon class="cls-21" points="522.74 0 509.28 9.5 509.28 9.5 522.74 0 423.03 0 439.36 61.47 498.13 70.7 505.09 32.47 529.91 62.8 576.23 30.11 568.24 0 522.74 0"/></g></g></g></svg>