<svg xmlns="http://www.w3.org/2000/svg" viewBox="0 0 1940 806.53"><defs><style>.cls-1{fill:#6dc6d9;}.cls-2,.cls-4{fill:#1d1d1b;}.cls-3,.cls-7{fill:#fff;}.cls-3,.cls-4,.cls-5{fill-rule:evenodd;}.cls-5{fill:#12100b;}.cls-6{fill:none;stroke:#fff;stroke-miterlimit:10;stroke-width:6px;}</style></defs><title>Recurso 1</title><g id="Capa_2" data-name="Capa 2"><g id="Ñëîé_1" data-name="Ñëîé 1"><rect class="cls-1" y="146.13" width="1940" height="133.12"/><path class="cls-2" d="M1061.6,252.8l-27.71-2.31h0a6.35,6.35,0,0,0-2.56.24,1.51,1.51,0,0,0-.83.65,1.53,1.53,0,0,0-.08,1.06,5.61,5.61,0,0,0,1,2.14l16.74,19.07a11,11,0,0,0,3.56,2.5,13.52,13.52,0,0,0,4.58.93h0l5.25.16v2.23l-5.34-.16h0a15.45,15.45,0,0,1-5.32-1.11,13.06,13.06,0,0,1-4.3-3l0-.05L1029.76,256l0-.07a8.13,8.13,0,0,1-1.48-3.05,3.74,3.74,0,0,1,.29-2.54,3.61,3.61,0,0,1,2-1.7,8.24,8.24,0,0,1,3.52-.39h0l27.52,2.3Zm15.09,1.13L1094,274.52l0,.07a5.06,5.06,0,0,1,.92,1.94,2.75,2.75,0,0,1-.43,2.17h0a3.53,3.53,0,0,1-1.76,1.24,9.35,9.35,0,0,1-3.52.37h0l-27.7-.84v-2.23l27.79.85h0a7,7,0,0,0,2.65-.26,1.41,1.41,0,0,0,.69-.42h0a.57.57,0,0,0,.06-.45,3,3,0,0,0-.52-1L1075,255.4h0a6.1,6.1,0,0,0-2.57-1.26,25.68,25.68,0,0,0-5.07-.86h0l-5.78-.48v-2.24l6,.49h0a27.06,27.06,0,0,1,5.52.94,7.9,7.9,0,0,1,3.58,1.89Z"/><path class="cls-3" d="M1169.4,203.41l1.5,5.58,4.39,6.4s24.24,31.47,31,37.64,20.06,6.74,20.06,6.74l10.33,1.33v-8.59l-1.89-.2s-12.93-.65-21.84-5.16l-7.74-7.25s13.26.87,31.47,2v-5.22c-13.18-.74-25.75-1.55-35.86-2.4l-7.07-9.42s17.82.66,42.93,1.44v-6c-19-.5-36.68-.94-46.93-1.14h-.13l-5.89-9.23,53,.17v-6.29l-57.66-.16-5.69-8.44c11-.35,22.12-.48,33.27-.52h0l30.07-.44v-5.88c-20.13.36-43.2.8-66.89,1.34,23.58-.54,46.67-1,66.89-1.41v-35.2l-3,.27L1214.41,155l-12.61,1.09-34.53,4.76,8.22,4.47a26.89,26.89,0,0,1-6.09,6.28c-4.13,3.14-3,7.66-7.07,7.07s-2.95,1.37-2,5.3S1169.4,203.41,1169.4,203.41Zm67.28-50.35v35.2c24.14-.47,44.19-.83,56.1-1V175.71l-6.34.21,6.34-.29V151.3c-7.18-.21-29-.81-33.25-.32-2.06.24-11.88,1.12-22.85,2.08Zm56.1,112.34v-8.48l-31.28-1.86-24.82-2.55v8.59l3.41.44,39.08,3.34,13.61.52Zm-56.1-77.07c24.42-.43,44.51-.73,56.1-.89v6c-15.77.17-36.42.45-56.1.74v-5.88Zm0,15.44,56.1.14v6.33l-56.1-.18v-6.29Zm0,16.5c19.66.52,40.66,1.11,56.1,1.54v5.95c-19.85-.44-39.56-1-56.1-1.5v-6Zm56.1,19.1v5.57c-18.6-.88-39.42-2.07-56.1-3.08v-5.22C1256,237.74,1276.66,238.68,1292.78,239.37Zm0-88.07v24.33l6.28-.29.06.16-6.34.21v11.52l10.69-.18.1.24-10.79.15v6l2.25,0c3.9-.21,7.76-.48,11.58-.78l3.78,11h-.86l.11.32-16.86,0v6.33l16,0,3.79,0,3.79,12.11h-.55l0,.12-23.12-.65v5.95l19.35.39h0l6.12-.19,3.54,12.57s-12-.43-29-1.16v5.57c7.56.36,14.76.67,21.15.89l5.41.24,4,.27.31,0,.93,4.43V234.27l-1.8-6.16,1.8-.43V221.8l-3.45.56-3.87-12.14s2.63-.17,7.32-.62v-6.47c-3,.21-6,.39-9.16.52l0-.05-.46,0-3.72-11.27,13.36-.57v-5.13c-5,.17-10.18.3-15.28.37l0-.07h-.87l-3.9-11.46h.5c6.74.07,13.26.15,19.58.28V155.41c-15-2.22-29.5-4-29.5-4l-2.3-.07Zm31.8,107.5-31.8-1.88v8.48l31.8,1.21Zm0-103.39v20.37l6.74.16V156.43l-6.74-1Zm6.74,111.19V245.42l-1.59.48v0l1.6-.46v-6.57c-1.63.44-3.29.89-5,1.33l-1.74-5.91V250.8l.42,2,1.39,5.38h-.25l.15.74-1.71-.1v7.81l6.12.23.62-.24Zm-6.74-80c2.28-.07,4.53-.16,6.74-.24v5.09l-6.74.28v-5.13Zm0,16.48c2.31-.17,4.55-.36,6.74-.56v6.32c-2.57.29-4.82.52-6.74.71v-6.47Zm6.74,17.49v5.48l-6.74,1.58V221.8C1326.89,221.42,1329.13,221,1331.32,220.62Zm0-64.19v19.51l1.53,0V156.67l-1.53-.24ZM1332.85,266v-8.17l-.06-.23.06,0V245l-1.53.46v-6.57l1.53-.41V245l-1.53.46V266.6l1.53-.62Zm-1.53-79.57,1.53-.07v5.09l-1.53.07v-5.09Zm0,16.16,1.53-.15v6.29l-1.53.18v-6.32Zm1.53,17.75v5.42l-1.53.36v-5.48Zm0-63.65V176c1.77.06,3.52.11,5.26.18V157.52l-5.26-.85Zm5.26,107.22v-8.12l-5.25,2.06V266l5.26-2.09Zm-5.26-77.55,5.26-.23v5.1l-5.26.22v-5.09Zm0,16.08c1.8-.18,3.55-.36,5.26-.56v6.22l-5.26.63v-6.29Zm0,17.9q2.7-.51,5.26-1v5.23l-5.26,1.24v-5.42Zm5.26,16.63v18.58l-5.26,2V245h.06l-.06,0v-6.52Q1335.57,237.69,1338.11,237Zm0-60.79c11,.4,21.5,1,31.53,2.14l2.08,5.72s-14.68,1.19-33.61,2.09v5.1l35-1.5v0l.47,0,1.23,5.51a263.33,263.33,0,0,1-36.73,6.61v6.22c9.22-1.17,21-2.91,34.14-5.45l3-.54,1.77-.2,1.18,6s-15.44,6.24-40.11,11.4v5.23l38.66-9.11,2.75-.59.39,5.89s-.29.19-.91.54c-3.32,1.87-16,8.45-40.89,15.72v18.58c11.66-4.52,34-13.26,38.15-15.63-4.36,2.48-27.58,11.71-38.15,15.87v8.12l15.71-6.26s14.5-6.86,22.34-10.87,9.52-8.39,9.52-8.39l.12-.59v-1.37a157.16,157.16,0,0,0-4.25-37c-.34-1.36-.7-2.73-1.08-4.1a86.19,86.19,0,0,0-9.2-21.74s-4.12-9.62-18.26-13.15c-3.51-.88-8.86-1.88-14.9-2.89Z"/><path class="cls-3" d="M927.76,313.88c7.19-.36,10.78.83,13.88,4,9.83,22.48,18.71,48.12,23.83,74.44.52,2.9-1,4.11-3.48,4.54l-6.16-.15,6-2a408.5,408.5,0,0,0-24-76.06C936.09,316.51,932.44,315,927.76,313.88Z"/><path class="cls-3" d="M909.59,310.34a29.05,29.05,0,0,1,11.44,2,14.64,14.64,0,0,1,5.1,7.1,514.59,514.59,0,0,1,17.36,70.51c.49,3.66-2.1,4.81-3.66,4.64L924,394.33c5.28-.82,11.36-1.1,14.79-3.14,2-.75,1.1-2.14.81-3.95-4.15-26-10-48.42-15.91-64.34C920.45,313.25,916.21,313.12,909.59,310.34Z"/><path class="cls-4" d="M1062.43,224.82c-5.87,0-10.66-6.71-10.66-14.94s4.79-14.95,10.66-14.95,10.66,6.72,10.66,14.95S1068.3,224.82,1062.43,224.82Z"/><path class="cls-4" d="M1004.34,217.36c-5.78,0-10.5-6.36-10.5-14.15s4.72-14.15,10.5-14.15,10.51,6.35,10.51,14.15S1010.13,217.36,1004.34,217.36Z"/><path class="cls-4" d="M1018.78,202.63c0-9.35-6.36-16.92-14.2-16.92-6.88,0-12.61,5.82-13.93,13.55,1.39-8.92,7.69-15.65,15.25-15.65,8.57,0,15.53,8.66,15.53,19.33s-7,19.33-15.53,19.33-15.53-8.65-15.53-19.33c.15,9.2,6.45,16.61,14.21,16.61S1018.78,212,1018.78,202.63Z"/><path class="cls-4" d="M980,181.12s-5.88,8.62-6.08,14.21L955.2,179.26Z"/><path class="cls-4" d="M1028.65,166c-11.08-2.77-22.19-5.18-33.09-7.33A104.84,104.84,0,0,0,979.94,156c-1.23-.13-2.5-.24-3.8-.34-4.73-.35-9.87-.53-15.46-.51-17,1.39-33.31,3.61-48.2,7.62l-10,2.47c-6.77,2.36-8.65,6.32-3.41,12.61,11.84,16.64,24.54,34.39,36.49,51.19a2.12,2.12,0,0,1,.43.59l2.17,3.06C960.77,236,982.4,238,1005,241.3c7.59,1.29,15.38,2.47,23.65,3.4v-2.6c-7.71-.87-15-2-22.07-3.18-21.2-3.09-45.58-5.53-66.79-8.63-11.91-16.75-26.33-36.5-38.25-53.26-4.92-5.89,2.53-7.25,8.88-9.47l9.37-2.32c14-3.76,29.38-5.93,45.31-7.24a124.15,124.15,0,0,1,32.62,4.47c10.33,2.54,20.66,5.2,30.93,8.1Zm126.54,74.89c4.45,5.1,1.34,7.23-3.13,7-34.76-.16-69.4-1.07-103.67-4.18-7-.32-13.49-.86-19.74-1.56v2.6c6.63.74,13.56,1.31,20.93,1.65,36.54,3.32,73.47,4.28,110.53,4.46q7.16.39,3.34-7.44c-9.1-12.41-20.51-23.12-34-33.28q-3.48-2.62-7.15-5.21-8.11-5.73-17.11-11.38c-23.49-12.17-50-20.89-76.57-27.53v4.6c24.12,6.82,47.93,15,70.75,26.06C1122.23,211.06,1141.92,222.76,1155.19,240.86Z"/><path class="cls-4" d="M940.81,164.14a218.17,218.17,0,0,1,53.79.55l66.4,18.69c-19.64-3.29-39.59-5.91-60-7.61-15.54-1.3-31.34-2.07-47.44-2.21Z"/><path class="cls-4" d="M1100.86,207.54l-16.44-1.67a3.36,3.36,0,0,0-3.39,2.94l-.54,9.34c-.17,2.51.56,3.94,2.51,3.94l8.78-.23C1097.17,217.89,1099.92,213.33,1100.86,207.54Z"/><path class="cls-4" d="M1103.61,209.11c11.85,6.66,19.78,13.7,27.44,21.66l-27.44-5.56Z"/><path class="cls-4" d="M1017.1,184.85l24.59,1.29c-5.16,4-8.29,7.92-8.48,11.88l-2.74,1.38q-1.63-5.44-5.61,2.84C1024.76,195.75,1021.88,190,1017.1,184.85Z"/><path class="cls-4" d="M1058.85,187.39l-12-.73c-4.76,1.71-7.31,4.06-8,7l10.49,2C1050.29,192.51,1054,189.85,1058.85,187.39Z"/><path class="cls-4" d="M932.57,169.05c12.47,5.66,24,13.71,34.95,23.56l-5.49-.82,4.31,7.5A316.22,316.22,0,0,0,932.57,169.05Z"/><path class="cls-4" d="M907.73,171c11-3.29,20.92-5.4,29.35-6.09l13.68,8.63-21-6.66,2.14,8.4a9,9,0,0,0,3.86,7.82l-20.85.78-7.72-8.65C905.17,173.23,904.57,171.8,907.73,171Z"/><path class="cls-4" d="M920,189.27l5.61,6.63,28,1.82C949.19,189.91,937.19,187.68,920,189.27Z"/><path class="cls-4" d="M1403.28,212.64l3.72,12a32.29,32.29,0,0,1-14.52,7s-.09-.59-.27-1.65c-.4-2.31-1.2-6.87-2.33-12.56l9.28-5.43C1402.89,209.3,1403.28,212.64,1403.28,212.64Z"/><path class="cls-4" d="M1381.09,228.16l.2,5.3s.65,3.21-5,6.44S1331,258.27,1331,258.27l-3-11.86s23.8-6.71,50.26-17.48l1.78-.71Z"/><path class="cls-4" d="M1379.91,220.69s-15.5,9.67-53.59,19.49l-3.54-12.07,54-12.72,2.75-.59Z"/><path class="cls-4" d="M1378.22,207.87s-22.72,9.18-57.09,14.49l-3.87-12.14a487.62,487.62,0,0,0,55-7.59l3-.54,1.77-.2Z"/><path class="cls-4" d="M1374.36,195.22s-24.84,6.93-59.42,8.4l-3.72-11.27,61.91-2.64Z"/><path class="cls-4" d="M1371.72,184s-32.88,2.55-63.32,2.94l-3.9-11.46c24,.23,45.61.67,65.14,2.8Z"/><path class="cls-4" d="M1300.27,175.46l4.31,11.57s-65.27,1.07-134.79,2.64l-3.31-6.16s54-5.63,120-7.59Z"/><path class="cls-4" d="M1173.33,195.17c44.56-1.42,91.29.86,133.28-2.51l3.78,11s-65.19.18-131.37,0Z"/><path class="cls-4" d="M1183.73,209.89l125.1.4,3.79,0,3.79,12.11s-96.54-2.64-126.79-3.23Z"/><path class="cls-4" d="M1193.75,224.82c41.1,1.53,83.51,4.6,124.5,3.14l3.4,12.21s-80.22-2.54-120.83-5.93Z"/><path class="cls-4" d="M1205.21,239.9s69.45,4.56,108.72,5.93l5.41.24,4,.27,3.05,11.83-64.89-3.11-26.71-2.75s-12.93-.65-21.84-5.16Z"/><path class="cls-4" d="M1070.26,85.93l22.51,15.58c-6.79-.57-20.87-1.69-28.43-2a574.41,574.41,0,0,0-65.79-46.34,331.08,331.08,0,0,0-46.15-23l-14.33-4.52-20.43-4.91-6.94-.94s14.75-.17,35.89,4.88h0a214.3,214.3,0,0,1,22.68,7.52C1005.8,47.28,1038.73,65.9,1070.26,85.93Z"/><path class="cls-3" d="M906.25,92.19c-8.45-3.61-9.82-9.35-10.8-10.73s-4.32-6.67-4.32-9.23-3.73-6.48-8.84-15.71-10.6-10-13-12.76-9.23-11.19-9.23-11.19c-8.05-5.7,9.82-2.36,9.82-2.36S880.33,31.39,887.2,32s11,3.73,9.82-2.16-17.09-14.07-17.09-14.07l5.7,1.89s3.15,3.54,16.7,8.45,16.49,11.78,16.49,11.78,6.48,10.8,9.43,13.94,11.19,12.57,11.19,12.57l21.24,29.29C940.61,93,921.49,92.49,906.25,92.19Z"/><path class="cls-3" d="M888.38,76.55a34.21,34.21,0,0,0,10.8,15.51l-5.62-.1h-.07c-2.57,0-7.27-7.55-8.64-15s-9.43-18.07-9.43-18.07a129.18,129.18,0,0,0-11.78-13A72.7,72.7,0,0,1,854,35.12c-20.82-22.39-41.66-24.19-41.66-24.19,24.67,1.76,42.84,21.64,44.8,23.8s13,14.13,13,14.13l7.27,8.25S885,66.54,888.38,76.55Z"/><path class="cls-4" d="M875.42,58.88s8.05,10.6,9.43,18.07,6.07,15,8.64,15c-12.74-.22-20.62-.29-20.62-.29l-132,2c-6.67-1-21-35.74-21-35.74a315.48,315.48,0,0,1-11.58-31.81C703.4,9.59,693.77,2.91,693.77,2.91l39.28,2.36,79.31,5.66S833.2,12.73,854,35.12a72.7,72.7,0,0,0,9.62,10.8A129.18,129.18,0,0,1,875.42,58.88Z"/><path class="cls-4" d="M960.68,93.67,939.44,64.38S931.19,55,928.25,51.81s-9.43-13.94-9.43-13.94S915.88,31,902.33,26.09s-16.7-8.45-16.7-8.45l-5.7-1.89,1.78.12,27.7,3.79C934.18,23,964,44.15,964,44.15s15.63,17.18,20,19.25,6.25,22.26,17.06,26.44,7.63,4.51,10.91,6.18C995.39,95,977.69,94.26,960.68,93.67Z"/><path class="cls-3" d="M1001.08,89.84C990.27,85.66,988.41,65.47,984,63.4s-20-19.25-20-19.25S934.18,23,909.41,19.66l1.3.18,6.93.94,20.43,4.91,14.33,4.52a331.08,331.08,0,0,1,46.15,23,574.41,574.41,0,0,1,65.79,46.34l-6.68-.79-21.28-1.09-4.27-.28h0c-6.42-.49-13.16-.94-20.09-1.35h0C1008.71,94.35,1011.88,94,1001.08,89.84Z"/><path class="cls-4" d="M887.2,32c-6.87-.59-17.28-1.77-17.28-1.77s-17.87-3.34-9.82,2.36c0,0,6.88,8.44,9.23,11.19s7.86,3.53,13,12.76,8.84,13.16,8.84,15.71,3.34,7.86,4.32,9.23,2.35,7.12,10.8,10.73l-7.07-.13a34.21,34.21,0,0,1-10.8-15.51c-3.34-10-11-19.44-11-19.44l-7.27-8.25s-11-12-13-14.13-20.13-22-44.8-23.8l67.57,4.82S895.85,23.93,897,29.82,894.08,32.57,887.2,32Z"/><path class="cls-4" d="M1150.15,239.21l3,3.14s4,3.72-2.64,3.62-49.1-1.51-49.1-1.51l-26.31-1.77-34.17-2-29.85-3.92-46-6.09-18.27-3-5.69-8.64,47.13,7.07,38.1,4.32s5.1,1.38,18.85,2,40.84,2.75,40.84,2.75l24.55.59,24.35,1,12.28-.43Z"/><path class="cls-4" d="M982.05,188.69l12.93.51h0l-.42.54a21.35,21.35,0,0,0-2.95,20.73c.15.44.31.88.49,1.31L987.55,207l-10.4-9.82A16.63,16.63,0,0,1,982.05,188.69Z"/><path class="cls-4" d="M977,201.25a18,18,0,0,0,2.55,13l13,5.11L988.53,213Z"/><path class="cls-4" d="M1047.05,199.68s-3.73,13,.79,18.46c0,0-7-8.44-12.87-2.16,0,0-2.5-15.64,1.48-18.85Z"/><path class="cls-2" d="M1062.43,231c-4.33,0-8.21-2.42-11-6.34a27.13,27.13,0,0,1,0-29.59c2.8-3.91,6.68-6.34,11-6.34V191c-3.56,0-6.81,2.06-9.19,5.39a25,25,0,0,0,0,27c2.38,3.33,5.63,5.39,9.19,5.39Zm0-42.27c4.32,0,8.21,2.43,11,6.34a27.13,27.13,0,0,1,0,29.59c-2.79,3.92-6.68,6.34-11,6.34v-2.24c3.56,0,6.81-2.06,9.18-5.39a24.9,24.9,0,0,0,0-27c-2.37-3.33-5.62-5.39-9.18-5.39Z"/><path class="cls-4" d="M1021.72,217.16c3.61,2.28,11,14.37,11,14.37a48.68,48.68,0,0,1-6.25-1l-38.1-4.32-3.81-.57,7.34-2,6.29-.2c9.82,3.15,15.12,1,15.12,1A37.31,37.31,0,0,0,1021.72,217.16Z"/><path class="cls-4" d="M1386.91,203.67c15,3,1.77,8,1.77,8C1388.14,209.09,1387.55,206.4,1386.91,203.67Z"/><path class="cls-4" d="M1390.91,188.88s5.7,4.52,7.46,11c0,0-3.21.44-4-1.32S1390.91,188.88,1390.91,188.88Z"/><path class="cls-4" d="M979.7,97.57s-139.82.19-156.32-2.36L746,93.56s101.34,7.15,133.55,13.83,48.3,5.49,154.35,27.88c0,0-143.36-25.53-86-30.63,0,0,13.36-4.91,20.43-4.13A15.62,15.62,0,0,0,979.7,97.57Z"/><path class="cls-4" d="M1417.23,333.81l-1.49-27.1c17.92-9.4,24.92-15.57,24.92-15.57-3.27,3-14.9,12.44-13.64,14.91-3,4.52-10.3,16.13-7.25,21.74C1418.61,334.57,1417.23,333.81,1417.23,333.81Z"/><path class="cls-4" d="M1421.91,351.09c6.86-4.8,8.42-9.6,8.42-9.6a7.39,7.39,0,0,0,.84,4s-2.5,4.87-5.54,6.44S1421.91,351.09,1421.91,351.09Z"/><path class="cls-4" d="M1331.6,402.34l82.09-29.85s4.53-1.41,14.64-7.77c-5.78,7.57-13.72,13.22-25.88,17.92-24.23,8.72-42.74,17.4-67.08,26.66-49.43,9.68-98.75,17.32-150.27,23.87a54,54,0,0,0-26.7,6.07l-6.16,1.14L1099,446c-55,6.56-106.78,2.89-157.62-3.66l-14.74-2.1s-10.8-.59-15.71-9.62l-6.29-14.33-2-4.91s2.16,1.18,21.6,4.71l33.38,5.5,29.66,3.93,30.63,2.74s33.78,1.77,49.1,1.77,59.1-2.55,59.1-2.55l27.3-2.16,29.46-2.95S1243.24,416.48,1331.6,402.34Z"/><path class="cls-4" d="M611,135.22c-1-13.22-15-14.87-19.07-2.91l.78,1.52,9.64,1.69.15-6.07,2.42.53-.27,5.94,4.53.8Z"/><path class="cls-4" d="M591.56,138.41a52.35,52.35,0,0,0,17.83,2.94c.27,2.74-1.65,4.38-3.86,4.91-5.71.62-8.78-.16-12.4-2.32C591.91,142.33,591.74,140.88,591.56,138.41Z"/><path class="cls-4" d="M780.11,410.88c-2.38-5.51-4.39-10.94-6.22-16-4.94-13.68-11-48.52-9.76-75,0-.88.09-1.75.14-2.61,1.77-26.71,7.66-42.81,8.84-45.95a114.36,114.36,0,0,1,7-14.76V310c-12.54,1.78-16,9.94-16,9.94l11.53.53s1.91.09,4.45.12v13.19l-10.26-3.24-4.6,3,4.31,2.16,10.55,4v11.39l-9.55-8.66,1.76,16.1,4.13,22.58s1.84,5.9,3.66,11.21v18.54Zm0-98.23-5.75,1.41,5.75.22Zm0-56c1-1.69,2-3.41,3.11-5.08h0l0-.07h0v58.26c-1.11.05-2.17.15-3.16.29V256.6Zm0,56,3.16-.77v2.52l-3.16-.12v-1.63Zm0,7.92c1,0,2.06,0,3.16,0V335l-1.95-.83-1.21-.38V320.57Zm0,19.15,3.16,1.2v25.42c-1.16-6.31-2.11-14.27-2.11-14.27l-1-1V339.72ZM782.54,399l.73,1.74v17c-1.13-2.29-2.18-4.59-3.16-6.88V392.34C781,395,781.89,397.45,782.54,399Zm.73-147.57a50.82,50.82,0,0,1,7.32-8.94,32.17,32.17,0,0,1,14.25-7.84v3.52l-.7.2.7-.19v6.37l-.8-.63s.3,2.08.8,5.51v30.79c-1.75-14.48-3.44-31.9-3.44-31.9L797.28,245l1.36,13.8s1.57,13,2,23.76,3.84,26.51,3.84,26.51.14.44.4,1.18v33.67c-2-.55-4.32-1.34-4.32-1.34l-9.31-4.22L783.27,335V320.58c2.16,0,4.4-.11,6.14-.32,4.91-.59,6.68-5.5,6.68-5.5l-6.15-.11-6.67-.25v-2.52l1.08-.27c4.7-.78,1.47-2,1.47-2-.88,0-1.73,0-2.55,0V251.43Zm0,89.49v25.42c.33,1.8.68,3.47,1,4.78,1.57,5.89,5.11,7.46,5.11,7.46l1,8.45,2.16,5.49,2.36,2.36s-2.95,19.64-2.56,23.57c.36,3.54-6.33-11.32-9.08-17.71v17a98.46,98.46,0,0,0,14.39,22,72.81,72.81,0,0,0,7.18,7.2V347.39l-3.34-.51-18-5.88-.2-.08Zm0-89.5h0Zm21.56-16.77a23.58,23.58,0,0,1,5.58-.8h.06v3.43a27.72,27.72,0,0,0-5.64.89v-3.52Zm0,3.53v6.37l.87.69L810.48,272V237.5a21,21,0,0,0-5.64.68Zm0,11.25c1.15,7.81,3.38,22.61,5.64,35.78V307c-.78-2.24-1.82-5.25-2.81-8.32-.73-2.27-1.79-9.84-2.83-18.44V249.43Zm0,60.81A132.7,132.7,0,0,0,810,323l.46.92v21.68a5.47,5.47,0,0,0-3.2-1.14,12,12,0,0,1-2.44-.52V310.24Zm3,37.62a4,4,0,0,1,2.62,1.82V353a7,7,0,0,1-.6,1.28l-2.09,3.85-1.8,7.27c.66-1.3,2.69-4.31,4.49-7.32V379.5c-.17.55-.25.85-.25.85l-3,13.75,1.57,8.83s.52-1.47,1.63-5.11v33.42l-4.28,2.14,1.37,1.67,2.91-1.41V451a37.41,37.41,0,0,1-5.64-4V347.39Zm2.62-114a37.75,37.75,0,0,1,5.24.16v3.58a23.7,23.7,0,0,0-5.24-.31v-3.43Zm0,3.65V272l4.44,24.84.8,1.52V238.18a23.25,23.25,0,0,0-5.24-.68Zm0,47.71c1.93,11.21,3.89,21.23,5.24,24.75v.49a1.93,1.93,0,0,0-1.29.62l1.29-.55v56.16a89.7,89.7,0,0,0-5.24,12.82V358.12c1.59-2.64,3-5.27,3.19-6.75.12-.89-.58-1.94-.91-2.73a7.13,7.13,0,0,0-2.28-3.07V323.89c2.32,4.46,1.89,1.34,1.89,1.34l-.59-14.6-1.3-3.65V285.21Zm0,64.47V353a4.17,4.17,0,0,0,0-3.36Zm0,48.14c.42-1.35.92-3,1.5-5a12.41,12.41,0,0,1,3.74-6.19v42l-5.24,2.62V397.82Zm0,53.14a25.8,25.8,0,0,0,5.24,2.25v-22.1l-5.24,2.53ZM815.72,234a36.87,36.87,0,0,1,9.46,2.29v5.19a24.06,24.06,0,0,0-9.46-3.9V234Zm0,4.17v60.16l1.16,2.19a27.4,27.4,0,0,0,4.73,5.46c2,1.81,3,1.95,3.45,1.85-1.08.5-5.53,2.43-9.14,2.6l-.2-.48v.49h.2l-.2.08v56.16a69.1,69.1,0,0,1,3.9-6.77s2.34-5.05,5.56-.1v-52l-.12,0,.12,0V241.92a40.49,40.49,0,0,0-9.46-3.74Zm3.54,146.69-.13-19.24c2.43-5.76,3.27,1.36,3.27,1.36a41.83,41.83,0,0,0,2.78,8.25v78.84a25.07,25.07,0,0,1-9.46-.87v-22.1l6-2.92L818,427.5l-2.24,1.12v-42A7.44,7.44,0,0,1,819.26,384.87Zm5.92-148.57c.74.29,1.46.59,2.18.92v5.9l-.05,0,.05,0V363.27l-1.76-2.78c-.14-.24-.28-.47-.42-.68v-52a.5.5,0,0,0,.13-.07l-.13.06V241.92c.7.36,1.41.75,2.13,1.16-.71-.57-1.41-1.1-2.13-1.59V236.3ZM827.36,380v73.82c-.74.11-1.46.2-2.18.26V375.24C825.86,376.83,826.61,378.44,827.36,380Zm0-142.78,0,0v5.93h0V363.35l0-.08V243.12l0,0,0,0v-5.9Zm0,142.89v73.7h0V380Zm0-142.87c.9.41,1.78.85,2.65,1.32,0,0,.34.17,1,.57v7.1c-1.32-1.15-2.55-2.19-3.61-3.06l0,0,3.57,3.09v.21c-1.9-1.83-3.24-3-3.61-3.33h0v-5.93Zm0,5.93V363.35L831,369V246.5c-1.85-1.78-3.16-2.94-3.57-3.3l0,0Zm3.61,144v65.92c-1.24.31-2.44.55-3.61.73v-73.7C828.7,382.77,830,385.26,831,387.16Zm0-148a32.66,32.66,0,0,1,3.62,2.7v7.58h0v.7c-1.33-1.38-2.56-2.6-3.62-3.61v-.21l3.61,3.12c-1.25-1.11-2.46-2.19-3.61-3.18v-7.1Zm0,7.37V369l.55.86a15,15,0,0,1,3.07,5.11V250.11c-1.34-1.38-2.56-2.6-3.62-3.61Zm2,144.26,1.64,2.74v58.55c-1.25.4-2.45.74-3.62,1V387.16C832.2,389.35,833,390.76,833,390.76Zm1.64-148.93c3.78,3.2,9.47,9.14,15.43,19.38v9c-4.31-7.83-10.57-15.1-15.43-20.14V375c.17.49.33,1,.46,1.55,1,4.12,5.29,14.4,5.29,14.4L847,404.9l3.12,5.47v-16.2L839.88,372.1c-.8-1.73-5.54-12-4.88-18.18l6.76-3.91s.68,11.32,2.84,17c1.21,3.2,3.61,9.27,5.47,14V270.25c-4.31-7.83-10.57-15.1-15.43-20.14v-.7h0v-7.58Zm15.43,177.63v21.15c-3.7,4.75-7.88,8.47-12.55,10.43-1,.37-1.95.7-2.88,1V393.5Zm1.67-155.29a153.19,153.19,0,0,1,11.31,27.42l0,.08a.31.31,0,0,0,0,.08c.21.66.41,1.31.6,2h0c.66,2.22,1.29,4.42,1.87,6.6v.18c-.51-2-1.05-3.95-1.63-5.93l0,.06c.58,2,1.11,4,1.61,5.9V408.36c-3.49,11.2-8.67,23.48-15.51,32.25V419.46l4.54,7.63,2.16-7.47L855,418.28l-3.3-5.14-1.59-2.77v-16.2l3,6.41,6.68,13.15c-.39-2.16,5.5-13.94,5.5-13.94l-1.32,1.14-1,.71a4.43,4.43,0,0,1-3.6.51l-2.16-4.91-4.52-9.82L850.07,381V270.25A40.68,40.68,0,0,1,854.8,283a40.68,40.68,0,0,0-4.73-12.7v-9C850.63,262.16,851.18,263.15,851.74,264.17Zm17.14,50.55v.4c-.46-2.37-1-5-1.67-7.88v0c.65,2.84,1.21,5.53,1.68,7.94V396c-.84,3.77-1.94,8-3.3,12.33V300.54c.59,2.31,1.13,4.55,1.62,6.68-.49-2.17-1-4.42-1.62-6.71v-.18C866.88,305.23,868,310,868.88,314.72Zm1.72,10.15v0l0-.22h0l0,.22v61.87q-.24,1.59-.48,3c-.32,1.89-.73,4-1.24,6.26V315.16c.84,4.28,1.4,7.68,1.68,9.5-.28-1.85-.83-5.22-1.68-9.54v-.4C869.55,318.17,870.12,321.56,870.6,324.87Zm.17,1.24h0l0-.15q0-.3-.12-.84h0l0-.24v0l0,.23,0-.22v61.87c.06-.38.11-.77.17-1.17V326.12l0-.16Zm0,59.49a213.69,213.69,0,0,0,0-59.49h0c0,.2,0,.22,0,0Z"/><path class="cls-4" d="M686.7,113.47l.95-3.84,7.69.9s6.68-4.13,9.43-10.41c1.22-2.78,1.51-3.68,1.46-3.81l.93,2,.75,6.1,2.55.2.4-12.38H734l-16.5,2.16a22.3,22.3,0,0,0,4.72,14.14c5.3,6.88,6.67,8.25,6.67,8.25s2.36,4.52-1,6.48-.39,8.25-.39,8.25,3.34,3.34-6.87,7.66-11.79,6.48-21,.59-11.58-9.43-11.58-9.43-5.3-6.09-.2-7.07,3.14-3.53,3.14-3.53l1.58-3.34Z"/><path class="cls-4" d="M703.81,102l-30.85.3,12.57-4.71,20-.4s.59-1,.67-.87h0c0,.14-.25,1-1.46,3.81A16.35,16.35,0,0,1,703.81,102Z"/><path class="cls-3" d="M706.23,96.3h0c-.08-.14-.67.87-.67.87l-20,.4L673,102.28l30.85-.3a16.35,16.35,0,0,0,1-1.86,26.49,26.49,0,0,0,1.46-3.71V96.3Zm0,0a.16.16,0,0,1,0,.1V96.3Z"/><path class="cls-3" d="M618,83.62c1.95-6.83,4.78-8.69,4.78-8.69,0,.19,49.14-3.87,55.12-1.52,0,0,4.91.2,4.71,9,0,0-1,14.53-1.77,15.7s-.29-1.29-2-3.73c-9.34-13.64-22.59-19.28-43.2-18.06C628.6,76.77,620.67,75.09,618,83.62Z"/><path class="cls-4" d="M618,83.62c2.7-8.53,10.63-6.85,17.68-7.26,20.61-1.22,33.86,4.42,43.2,18.06,1.67,2.44,1.18,4.91,2,3.73s1.77-15.7,1.77-15.7c.2-8.84-4.71-9-4.71-9-6-2.35-55.15,1.71-55.12,1.52,0,0,.35-.06,1.11-.14,9.76-1.07,54.19-13.63,61.67-1.57,3,9,0,24.35,0,24.35L673,102.28l30.85-.3a28.63,28.63,0,0,1-8.47,8.55l-7.69-.9L673.55,108l-16.5-.58s-40.26,1-43.59,0,1-10,1-10A133.17,133.17,0,0,1,618,83.62Z"/><path class="cls-3" d="M510.48,215.09s-7.21-9.89-11.51-8.31q.38-.41.78-.81c3.73-3.73,7.07,1.37,7.07,1.37A42.45,42.45,0,0,1,510.48,215.09Z"/><path class="cls-3" d="M503.68,236.67s-.49,5.58-3.62,4.31l-6.86-11.37s-1.86-3.52,1-3l7.35,8.23Z"/><path class="cls-3" d="M493.59,233.34s8.33,16.06,10.09,18.81l2.06,3.33s2,4-1,2.35a72.91,72.91,0,0,1-10.58-15.48l-2.64-6.17s-.27-2.93.61-2.79l.87,0Z"/><path class="cls-3" d="M513.28,248c.49,4.8,2.07,3.33,2.07,3.33,0,1.56,0,3.1.07,4.6l-1.84-.68-3.53-2.16a15.11,15.11,0,0,1-1.37-3.91c-.1-1.37-2.06-3.92,1.67-8S512.79,243.23,513.28,248Z"/><path class="cls-3" d="M498.59,264.69l-4.8,12.53s-2.35,1.87-2.16-2.15a46.52,46.52,0,0,0,0-6.08l-1.56-1V250.77s.88-1.76,1.27,2.35-.78,5,1.47,6.67c0,0-.54,3.59.49,3.92s.68-1.28,2.35-2.55,2.35-.39,2.45,1A11.88,11.88,0,0,0,498.59,264.69Z"/><path class="cls-3" d="M511.85,262.65c.88-.59,3.63-.49,3.63-.49q0,1,0,1.83L514,264l-2.58.39S511,263.23,511.85,262.65Z"/><path class="cls-3" d="M508.78,267.92s-2.06,12.24-2.25,15.67-.2,17.24-.2,17.24l-2.84-6.36-.1-12.84L501,280l-2.74,2.25-.1-4.31,3.62-4.51,4-4.89Z"/><path class="cls-3" d="M514.36,277.91l.3,8.14s-4,18.21-5.49,19.29L508.78,284s1.66-.09,1.17-5.68l2.82-.34Z"/><path class="cls-3" d="M496.43,296.13s4.22,4.12,5.1,5.88,2.45,5.58,1.76,8.33a7.47,7.47,0,0,1-2,3.82s1.09-2.65-.28-4.41-3.71-2.26-4.51-1.76.3-2.65,1.08-3.14-1.27-5-1.27-5-1.16-1.76-.95-2.89.39-.89.39-.89Z"/><path class="cls-4" d="M498.14,207.73a20.25,20.25,0,0,0-3.37,5.43s-4.31,9.89-5.49,27.91.65,39.32.65,39.32,1.57,23.76,6.68,29.26a10.57,10.57,0,0,0,1.53,2.38V307.9a2.25,2.25,0,0,0-1.61.09c-.8.49.3-2.65,1.08-3.14s-1.27-5-1.27-5-1.16-1.76-.95-2.89.39-.89.39-.89l.65.06s.77.75,1.71,1.74v-32l-4.35,11.37s-2.35,1.87-2.16-2.15a46.52,46.52,0,0,0,0-6.08l-1.56-1V250.77s.88-1.76,1.27,2.35-.78,5,1.47,6.67c0,0-.54,3.59.49,3.92s.68-1.28,2.35-2.55,2.35-.39,2.45,1c0,.15,0,.31,0,.45V249.22a63.59,63.59,0,0,1-4-6.87l-2.64-6.17s-.27-2.93.61-2.79l.87,0,.57,0s2.19,4.21,4.55,8.69V237.8l-4.94-8.19s-1.86-3.52,1-3l4,4.43Zm.25,23.56V207.43l-.25.3V231l.25.28Zm-.25,6.51V242l.25.47v-4.28l-.25-.42Zm0,11.42.25.37V264a13.27,13.27,0,0,1-.25-1.39V249.22Zm0,16.63.25-.65v12.47l-.19.24.1,4.31.09-.08v16l-.25-.26v-32Zm.25,42.11v4.35l-.25-.28V307.9Zm3.14-73.15,2,1.69V208c-1.59-1.07-3.19-1.68-4.52-1.19l-.58.65v23.86l3.14,3.52Zm-3.14,3.41v4.28c2,3.83,4.15,7.76,5.1,9.33v-14c-.35,1.56-1.25,4-3.43,3.12l-1.67-2.76Zm0,11.37a79.7,79.7,0,0,0,5.1,6.78v15l-1.67,2-3.43,4.27V265.2l.2-.51s-.09-.28-.2-.71V249.59ZM501,280l2.35,1.66.1,12.84V314.2a4.92,4.92,0,0,1-2.17,0,6.23,6.23,0,0,1-2.93-1.85V308a5.31,5.31,0,0,1,2.65,1.79c1.37,1.76.28,4.41.28,4.41a7.47,7.47,0,0,0,2-3.82c.69-2.75-.88-6.57-1.76-8.33a22.57,22.57,0,0,0-3.14-3.88v-16Zm2.45-28.14.19.32,2.06,3.33s2,4-1,2.35c0,0-.48-.52-1.27-1.46v15l2.35-2.86,2.94-.59s-2.06,12.24-2.25,15.67-.2,17.24-.2,17.24l-2.84-6.36V314.2a8.68,8.68,0,0,0,3.92-2.19s2.29-1.93,4.31-8.4v-5.45c-1,3.62-2,6.75-2.55,7.18L508.78,284s1.66-.09,1.17-5.68l1.77-.21V264.36l-.26,0a1.54,1.54,0,0,1,.26-1.65v-8.61l-1.67-1a15.11,15.11,0,0,1-1.37-3.91c-.1-1.37-2.06-3.92,1.67-8a5.62,5.62,0,0,1,1.37-1.2V219c-.37-1.32-.78-2.6-1.24-3.86a35.27,35.27,0,0,0-7-7.12V236.5l.19.17a9.63,9.63,0,0,1-.19,1.19ZM511.72,219c2.87,10.14,3.45,21.88,3.63,32.41,0,0-1.58,1.47-2.07-3.33-.41-4.07.44-9.13-1.56-8.06V219Zm0,35.19,1.86,1.14,1.84.68c0,1.58,0,3.11,0,4.6,0,.55,0,1.08,0,1.6,0,0-2.75-.1-3.63.49l-.13.1v-8.61ZM514,264l1.47,0c.14,11,.2,12.07-.85,22.06-.17,1.55-.35,3.3-.57,5.34a64.81,64.81,0,0,1-2.37,12.22v-5.45c1.48-5.5,2.94-12.11,2.94-12.11l-.3-8.14-1.59,0-1,.13V264.36Z"/><path class="cls-4" d="M502.24,184.52c-1.76-1.51-6.65-4.64-10.15,3.77a67.64,67.64,0,0,0-4.51,23s-.23,20.67-.52,34.78c-1.17,32.58.76,61.38,13.75,76.66a10.76,10.76,0,0,0,1.43,1.15v-9.57a4.64,4.64,0,0,1-.92-.13c-3.1-.78-4.71-4.51-4.71-4.51-5.11-5.5-6.68-29.26-6.68-29.26s-1.82-21.29-.65-39.32,5.49-27.91,5.49-27.91a21.08,21.08,0,0,1,4.2-6.38q.38-.41.78-.81a4.23,4.23,0,0,1,2.49-1.35Zm11.85,106.87c-1.77,16.5-6.68,20.62-6.68,20.62-2,1.77-3.72,2.36-5.17,2.28v9.57c2.84,1.94,6.12,2.26,9.48,2.33,16.58-1.14,32.41-3,49-4.16,2.33-.6,5.07-3.88,5.71-5.29,1.39-4.68,2.42-7.21,3.09-11.8,0,0-22.82-6.95-27.82-9.4s-11-5-14.3-13.81c0,0-1-2.84,1.76-6.37,0,0,.79-6.07-1.07-9.6S524.69,257,521.16,237s-8.25-32.4-8.25-32.4-3.73-11.58-10-19.44c0,0-.25-.27-.66-.63v20.1c2.61-.3,4.58,2.72,4.58,2.72a42.45,42.45,0,0,1,3.66,7.75c4,10.95,4.67,24.37,4.87,36.27,0,1.56,0,3.1.07,4.6l0,4.6,0,1.6,0,1.83c.14,11,.2,12.07-.85,22.06C514.49,287.6,514.31,289.35,514.09,291.39Z"/><path class="cls-3" d="M865.21,399.79s-5.89,11.78-5.5,13.94L853,400.58,839.88,372.1c-.8-1.73-5.54-12-4.88-18.18l6.76-3.91s.68,11.32,2.84,17,8,20.41,8,20.41l4.52,9.82,2.16,4.91a4.43,4.43,0,0,0,3.6-.51l1-.71Z"/><path class="cls-3" d="M856.77,419.62l-2.16,7.47L833,390.76s-9.23-16.11-10.6-23.77c0,0-.84-7.12-3.27-1.36l.13,19.24s-5.13.61-7.28,7.95-3.13,10.11-3.13,10.11l-1.57-8.83,3-13.75a84.12,84.12,0,0,1,9.39-20.44s2.55-5.49,6,.58l6,9.41a15.2,15.2,0,0,1,3.53,6.66c1,4.12,5.29,14.4,5.29,14.4L847,404.9l4.71,8.24,3.3,5.14Z"/><polygon class="cls-3" points="821.77 428.19 807.57 435.05 806.2 433.38 817.96 427.5 821.77 428.19"/><path class="cls-3" d="M794.91,394.88s-2.95,19.64-2.56,23.57-7.85-14.73-9.81-19.45-6.09-17.87-6.09-17.87l-4.13-22.58-1.76-16.1,10.6,9.62s1.57,13.16,3.14,19.05,5.11,7.46,5.11,7.46l1,8.45,2.16,5.49Z"/><path class="cls-3" d="M809.88,354.32s3.18-5-2-6.46l-6.36-1-18-5.88-13.91-5.29-4.31-2.16,4.6-3,11.47,3.62,9.89,4.21,9.31,4.22s5.48,1.86,6.76,1.86,4,.68,5.48,4.21c.33.79,1,1.84.91,2.73-.41,3.17-6.43,11.64-7.68,14.07l1.8-7.27Z"/><path class="cls-3" d="M827.31,243.08a24.24,24.24,0,0,0-23.17-4.71l.49,2.8,2.65,2.35,4.4,3.53s3.65,20.77,5.22,27.45S820.83,289,820.83,289l1.18,4.72,8.24,9-4.9,4.91s-.71,1-3.74-1.7a27.4,27.4,0,0,1-4.73-5.46l-2-3.71-9.21-51.58L804,243.92s8.34,58.66,11.88,66.52l-2.08.88s-13.63-72.17-11.67-72.56c0,0-1.28.19-4.3,2.19,0,0-1.61,1-1.66,1.71s-1.61,1.07-1.61,1.07-9.57,5.15-11.33,7.71a50.9,50.9,0,0,1,7.32-8.95c9.42-8.83,19.83-8.64,19.83-8.64a37.37,37.37,0,0,1,19.64,4.71s10.65,5.28,21.68,25.61C851.27,264.77,834.92,249.3,827.31,243.08Z"/><path class="cls-3" d="M797.28,245l4.12,3.33s4.31,44.25,6.27,50.34,4.11,12,4.11,12l.59,14.6s.49,3.52-2.35-2.26a138.87,138.87,0,0,1-5.58-13.91s-3.44-15.71-3.84-26.51-2-23.76-2-23.76Z"/><path class="cls-3" d="M796.09,314.76s-1.77,4.91-6.68,5.5a112.16,112.16,0,0,1-13.75.19l-11.53-.53s4.45-10.56,21.69-10.27c0,0,3.23,1.18-1.47,2l-10,2.45,15.58.59Z"/><path class="cls-3" d="M830.25,312.6a15.31,15.31,0,0,0-6.08,8.25c-1.77,5.69-1,4.51-2.36,1s-6.48-3.93-6.48-3.93-2.46-5-.9-6.83l1.49-.63c3.61-.17,8.06-2.1,9.14-2.6a.75.75,0,0,0,.25-.11L854.8,283c-3-18.34-25.7-38.31-27.39-39.78l24.33,21a153.19,153.19,0,0,1,11.31,27.42c.22.71.44,1.42.65,2.13a250.26,250.26,0,0,1,6.86,30.95h0c-1-6.21-4.81-22.39-9.08-21.29-4.59,1.18-26.32,36.13-26.32,36.13l-2.55-8.25,10-12.56,7.85-9.43,10.21-9.62a33.2,33.2,0,0,0-3.33-12.57l-4.13,3.34-7.46,6.09Z"/><path class="cls-4" d="M825.06,307.84c-1.08.5-5.53,2.43-9.14,2.6-3.54-7.86-11.88-66.52-11.88-66.52l1.67,1.32,9.21,51.58,2,3.71a27.4,27.4,0,0,0,4.73,5.46C823.64,307.8,824.63,307.94,825.06,307.84Z"/><path class="cls-4" d="M842.63,134.88S816.31,130.56,781,150.2c0,0-4.44,3.3-5.82,6.82a5.62,5.62,0,0,1-4.31,3.82s-4.4,3.53-5.09,4.12-6.07,2-4.8-1.08,11.19-12.7,14.53-13.68,10.4-6.49,10.4-6.49c16-8.34,29-10.92,45-12.37Z"/><path class="cls-4" d="M531.41,124.89c-3.62-1.19-6.31.28-8.62,5.88a21,21,0,0,1,8.86.84Z"/><path class="cls-5" d="M530.56,136.05c-1.55-1.72-5.81-2.25-10.62-2.53a10.47,10.47,0,0,0,5.81,7.63C529.06,140,530.91,139,530.56,136.05Z"/><path class="cls-3" d="M684.54,168.26s10,6.48-1.37,4.71-17.48-4.71-17.48-4.71-17.08-4.12-24-5.69S625,158.44,625,158.44l-16.89-3.73s-6.87-3.73,34.76,4.91a159.17,159.17,0,0,1,22.58,3.73l12.57,3.14Z"/><path class="cls-3" d="M737.37,175.53s4.71,4.32-2.75,3.53a44.77,44.77,0,0,0-5.81-2.94,19.18,19.18,0,0,1-3.53-1.56s-.69-.88,3.62-.79,4.81.4,4.81.4l2.64.78Z"/><path class="cls-3" d="M785.28,180a104.28,104.28,0,0,1-14.92,3c-7.27.79-8.44,3.53-6.09,3.73s.59.2-3.73,2,0,2.94,5.89,2.16a18.22,18.22,0,0,0,9-3.54l5.55-4.23Z"/><path class="cls-3" d="M748.69,185.92s3.53-.49,3.24,2.74-2.55,3.14-4.51,4.41a17.12,17.12,0,0,0-4.11,4.31,18.57,18.57,0,0,0-2.26,4.31c-.39,1.57-1.37,1.67.2-4.11s.59-7.45.59-7.45a19,19,0,0,1,1.07-4c.69-1.47,1.87-3.92,2.65-2.35s.1,4.8.1,4.8Z"/><path class="cls-3" d="M574.41,148.2s-20.57-6.66-41.53-4.31c0,0-1.77,4.12.68,2.85s2.94-.1,2.55.58.88,2.16,3,1.28.49-2,2.54-2.06,4.41-.49,5.2-.49a40.39,40.39,0,0,0,4.5.2c2-.12,4.12.49,6.08.49a50,50,0,0,1,7.54.49c.78.29,4.8,1.17,4.8,1.17l2.74.1Z"/><path class="cls-3" d="M519.94,133.52c-1.57-3.91,2.85-2.75,2.85-2.75a21,21,0,0,1,8.86.84s2.48,3.54-1.09,4.44C529,134.33,524.75,133.8,519.94,133.52Z"/><path class="cls-3" d="M591.56,138.41l2.45-.49s-2.08-3.1-2.07-5.61l.78,1.52,9.64,1.69.15-6.07,2.42.53-.27,5.94,4.53.8a1.54,1.54,0,0,0,.39,2.28c1.38,1.17-.19,2.35-.19,2.35A52.35,52.35,0,0,1,591.56,138.41Z"/><path class="cls-3" d="M512.21,143.31s2,5.58-1.47,5.48-3.92-2.25-5.68-.1-5.49,1.28-4.12-1.17a10.9,10.9,0,0,1,4-3.82l4.31-.29Z"/><path class="cls-3" d="M504.66,152.55s5.3-4.12,10.8,4.52a73,73,0,0,1,7.66,15.51s1.77,9,3.14,18.85-1.37,5.7-3.14-.39-2-11.39-3.53-16.3S512.91,161,512.91,161l-2.75-3.73s-1.19,0-1.38,3.08-1.28-1-1.28-2.74-.49-3.53-2.25-3.43S504.66,152.55,504.66,152.55Z"/><path class="cls-3" d="M517,180.24s1.77,6.68-.58,7.27-1.77-2.95-2-4.72a2.68,2.68,0,0,1,.68-2.45s.44-1,.93-1S517,180.24,517,180.24Z"/><path class="cls-3" d="M507.6,165.64s.3,6.17,1.77,7.94,3.13,4.7,2.84,6.07,1,5.78-3.33,4.31-4.8-4.11-4.8-4.11-1.47-2.55.19-3.73.69-3.82.69-3.82l1.37-.29s2.55,1.64,2.1-.57S507.6,165.64,507.6,165.64Z"/><path class="cls-3" d="M502.7,170.44c.3,1.28-2.05.3-2.84,4.8s-3.13.88-3.13.88a29,29,0,0,0,.59-3.82c0-1.07,1-3.72-1.08-.09s-3.82,7.93-3.43,3.23,2.06-5.49,2.06-5.49,1.66-2.45,3.23-2,1.86,1.56,2.35,1.56A10.11,10.11,0,0,1,502.7,170.44Z"/><path class="cls-3" d="M610.9,299.44a1296.29,1296.29,0,0,1,146.52,47.2c-.4,2.14-1.07,4.27-2.18,5a8,8,0,0,0-2.65,4.29l-7-1.94L649,316.33C618.36,304.94,610.9,299.44,610.9,299.44Z"/><path class="cls-3" d="M609.53,306.51A378,378,0,0,0,552.58,282s5.1,5.9-3.14.4-15.32-5.89-15.32-5.89l-5-1.11-1.92,4.83,7.28,2.76s14.73,4.12,43.6,14.72,20.22,6.68,20.22,6.68l7.07,2.22Z"/><path class="cls-3" d="M738.55,311.62s14.92,11.78,2,7.85S711.84,311,711.84,311l-85.62-25.14L573,270.18l-42.81-13.55s-4.5.72-2.05-2.19,2.25-1.15,4-5.27,4.52-8.64,3.74-.39c0,0-2.69,1.87-3,4.16,0,0-3.41,1.85.8,3.22s40,11.37,40,11.37l5.1,1.46,2.54-1.46s84.42,23.47,96,27.2c0,0-23.17-3-36.53-8.64s39.47,13.16,39.47,13.16l54,16s3.62,1.87,3.52-.39l.39-1.66Z"/><path class="cls-3" d="M1021.13,318.49l25.14,1,36.72.79,69.32,2.55s17.68.79,32,8.25-2.4,8.62-2.4,8.62a70.2,70.2,0,0,0-16.06-1.75c-19.44-.19-39.47,0-39.47,0l-59.5.2s-21.21-1-30.05-1.77-20.22-1.57-20.22-1.57l-9.82-1.38s-5.26-2.28-8.63,1.61l-9.36-8.65L990.5,323c4.51-6.29,16.1-4.32,16.1-4.32Z"/><path class="cls-4" d="M492.09,188.29a67.64,67.64,0,0,0-4.51,23s-.23,20.67-.52,34.78c-4.63-12.44-7.31-26.84-4.6-46.62-2.86-3.35-1.53-10.45.93-12.33.06-19.81,2-19,3.75-25.16a51.58,51.58,0,0,0,1.38-5.61,32.61,32.61,0,0,1,9.22-21.78v33.3c-1.45,0-2.87,2.1-2.87,2.1s-1.67.79-2.06,5.49,1.37.39,3.43-3.23,1.08-1,1.08.09a29,29,0,0,1-.59,3.82,4.63,4.63,0,0,0,1,1.1v5.47C495.88,182.8,493.82,184.14,492.09,188.29Zm10.37-58.14,4.26-4.67v18.1l-1.76.12a10.9,10.9,0,0,0-4,3.82c-1.37,2.45,2.35,3.33,4.12,1.17.67-.82,1.14-1,1.66-.93v3.92a5.43,5.43,0,0,0-2.06.87s-1.17,1.73.59,1.63a1.73,1.73,0,0,1,1.47.56v17.49l-.39-.22-1.37.29s1,2.65-.69,3.82-.19,3.73-.19,3.73a5.28,5.28,0,0,0,2.64,3.12v7.85a47.65,47.65,0,0,0-3.82-5.67s-2.35-2.63-5.16-2.46v-5.47c.74.52,1.68.57,2.12-2,.79-4.5,3.14-3.52,2.84-4.8a10.11,10.11,0,0,0-2.25-1c-.49,0-.78-1.17-2.35-1.56a1.49,1.49,0,0,0-.36-.05v-33.3A47.36,47.36,0,0,1,502.46,130.15Zm4.26-4.67,1.3-1.41v19.42l-1.3.09v-18.1Zm0,22.28a6,6,0,0,1,1.3.46v3.35a5.84,5.84,0,0,0-1.3.11v-3.92Zm0,7a4.38,4.38,0,0,1,.78,2.87,11.53,11.53,0,0,0,.52,3V169c-.25-1.72-.42-3.33-.42-3.33a37.17,37.17,0,0,0,.42,3.84v3.1a2.4,2.4,0,0,1-1.3-.35V154.74Zm1.3,28.89v9.53c-.41-.77-.84-1.55-1.3-2.34V183A10.47,10.47,0,0,0,508,183.63Zm0-59.56,2.35-2.59a14.52,14.52,0,0,0,3.72.83,10.37,10.37,0,0,0,1.37,0v34.75c-2.74-4.3-5.43-5.44-7.44-5.49v-3.35a7.45,7.45,0,0,0,2.72.57c3.52.1,1.47-5.48,1.47-5.48l-2.94.1-1.25.08V124.07Zm.76,36.28c.19-3,1.38-3.08,1.38-3.08l2.75,3.73s1.16,2,2.55,4.64v14.17a3.68,3.68,0,0,0-.3.53,2.68,2.68,0,0,0-.68,2.45c.16,1.46-.21,4.12,1,4.68v24.95c-1.49-5-2.55-7.83-2.55-7.83A81.45,81.45,0,0,0,508,193.16v-9.53a7.73,7.73,0,0,0,.86.33c4.31,1.47,3-2.94,3.33-4.31s-1.37-4.31-2.84-6.07a5.94,5.94,0,0,1-.94-2.14c.16.79-.06,1.09-.41,1.14v-3.1a17.44,17.44,0,0,0,.41,2c-.15-.73-.29-1.61-.41-2.47v-8.35C508.32,161.59,508.67,162,508.78,160.35Zm6.68-38a26,26,0,0,0,7.86-1.77,13.26,13.26,0,0,0,2.73-2v7.13a12.84,12.84,0,0,0-3.26,5.07s-4.42-1.16-2.85,2.75a10.47,10.47,0,0,0,5.81,7.63l.3-.1V189.9c-1.34-9.2-2.93-17.32-2.93-17.32a73,73,0,0,0-7.66-15.51h0V122.31Zm0,57.5c.17-.25.39-.49.63-.49.49,0,.94.92.94.92s1.77,6.68-.58,7.27a1.47,1.47,0,0,1-1,0v24.95a228.47,228.47,0,0,1,5.7,24.57c2.23,12.67,3.66,19.41,4.89,23.55V197.3c-.73-.24-2-3-2.93-6.26-1.77-6.09-2-11.39-3.53-16.3a65.87,65.87,0,0,0-4.13-9.1Zm10.59-61.24c.82-.74,1.39-1.37,1.39-1.37s6.68-11.19,7.86-13.35c.91-1.68,5.38-8.21,6.78-10.31a3.1,3.1,0,0,0,.48,2.85l3.34-3s4.36-5.06,7.44-8.87v28.77c-7,1.3-9.21,2.49-9.21,2.49l9.21-.39v5.31c-5.85.93-8.71,1.69-8.71,1.69-9.79,1-7.57,2.62-7.57,2.62,4.9.21,10.58.72,16.28,1.36V144a94.78,94.78,0,0,0-20.46-.12s-1.77,4.12.68,2.85,2.94-.1,2.55.58.88,2.16,3,1.28.49-2,2.54-2.06,4.41-.49,5.2-.49a40.39,40.39,0,0,0,4.5.2,11.68,11.68,0,0,1,2,.07V261.83c-8.87-2.51-17.71-5-19.68-5.67-4.21-1.37-.8-3.22-.8-3.22.34-2.29,3-4.16,3-4.16.78-8.25-2-3.73-3.74.39s-1.57,2.36-4,5.27,2.05,2.19,2.05,2.19L553.34,264v18.26l-.76-.26s.38.44.76,1v1.67a20.68,20.68,0,0,1-3.9-2.23c-8.25-5.5-15.32-5.89-15.32-5.89l-5-1.11s.79-6.07-1.07-9.6a26.8,26.8,0,0,1-2-5.22V197.3c.61.21.84-1.36.21-5.87l-.21-1.53V141.05c3.12-1.12,4.85-2.1,4.51-5,3.57-.9,1.09-4.44,1.09-4.44l-.24-6.72a5.18,5.18,0,0,0-5.36.81v-7.13Zm27.29,170.36c-12.5-4.21-18.83-6-18.83-6l-7.28-2.76a4.57,4.57,0,0,0,.16,1.54c3.33,8.82,9.31,11.36,14.3,13.81,2,1,6.66,2.62,11.65,4.27Zm0-204.36c1-1.22,1.84-2.32,2.38-3.08.25,2.24,4.32,6.85,4.32,6.85s-2.55,4.71-3.53,6.48,0,8.44,0,6.67,6.28-13,6.28-13l11.39,4.91,11.39,3.34A46.65,46.65,0,0,0,597,100.51c6.87,1.38,5.89-5.69,7.07-3.53s8.54,5.51,8.54,5.51a9.28,9.28,0,0,0-.35,3.11,1.85,1.85,0,0,0,1.24,1.79c1.67.49,12.63.49,23.15.36v2.93c-10.36-.32-21.89-.55-34.15-.55-25.89,0-40.85,1.68-49.12,3.21V84.57Zm0,30.87v5.31a309.61,309.61,0,0,1,41.26-3.35s25.94-1.66,42-1.54V113.7c-11.55-.43-24.12-.6-36.9-.23l-46.37,2Zm0,11c15.79,1.78,31.75,4.54,31.75,4.54l.2,2.65s-.49,2.74-1.86,8.23.88,8,.78,6.56,1.18-7.93,1.18-7.93l3-9.6s3.53-1.08,3.52,1.44,2.07,5.61,2.07,5.61l-2.45.49c0,.45.06.87.1,1.26-.37,1.1-2.84.7-1.28,4s7.15,5.39,7.15,5.39,2.35,1.37,6.76.29,1.24-3.12,1.24-3.12a5.32,5.32,0,0,0,3.07-1.9,3.37,3.37,0,0,0,.79-3s1.57-1.18.19-2.35a1.54,1.54,0,0,1-.39-2.28l1.82-1.5c2.9.07,13.15,1.59,25.6,3.58v19.53c-34.6-7-28.46-3.62-28.46-3.62L625,158.44s5.77,1.5,11.57,2.91V283c-26.34-7.42-55.34-15.48-55.34-15.48L578.73,269l-5.1-1.46s-10.16-2.84-20.29-5.7V146.32c1.38.14,2.8.42,4.13.42a50,50,0,0,1,7.54.49c.78.29,4.8,1.17,4.8,1.17l2.74.1,1.86-.3A116.19,116.19,0,0,0,553.34,144V126.42Zm0,137.54v18.26a378,378,0,0,1,56.19,24.29l-4.13.06-7.07-2.22s8.64,3.93-20.22-6.68c-9.94-3.65-18.21-6.53-24.77-8.74v10.88c7.73,2.56,16.17,5.13,16.17,5.13l18.91,6.18a319.93,319.93,0,0,1,37,7.62c3.92,1.55,7.63,3,11.21,4.39V311.55c-20.33-8.15-25.71-12.11-25.71-12.11,8.73,2.22,17.33,4.52,25.71,6.86V288.94l-10.39-3.05L573,270.18,553.34,264Zm0,20.63c1.39.49.68-.73,0-1.67Zm83.27-176.84c4.41,0,8.75-.12,12.28-.19l38.76,2.07-.95,3.84s-20.16-1.84-50.09-2.79v-2.93Zm0,6c31.38,1.19,55.2,4.39,55.2,4.39l-.79,1.67C650.77,116,642.71,116,642.71,116c-1.77-.1-3.84-.15-6.1-.17V113.7Zm0,25.1c24.61,3.94,57.83,9.76,59.91,10,3.14.39,6.68.39,6.29,4.32s1.57,7.86,1.76,5.5.79-13,.79-13l.39,3.34L732,155.87v18c-.71-.06-1.72-.11-3.14-.15-4.31-.09-3.62.79-3.62.79a19.18,19.18,0,0,0,3.53,1.56,21,21,0,0,1,3.23,1.5v137l-51.82-15.35S668,294.89,656.78,291c10.59,2.47,20.5,3.74,20.5,3.74-4.8-1.55-22.07-6.47-40.67-11.72V161.35c1.76.43,3.52.85,5.12,1.22,6.88,1.57,24,5.69,24,5.69s6.09,3,17.48,4.71,1.37-4.71,1.37-4.71l-6.48-1.77-12.57-3.14a159.17,159.17,0,0,0-22.58-3.73l-6.3-1.29V138.8Zm0,150.14V306.3c39,10.93,73.43,22.75,95.43,30.75V316.93c-10.47-3.1-20.2-5.9-20.2-5.9l-75.23-22.09Zm0,34.19c16.21,6.3,29.48,11.26,45.5,18.58L732,363.07V348.74l-83-32.41c-4.65-1.73-8.76-3.32-12.39-4.78ZM732,155.87l14.13,3.69v28.56l-.51.45s.68-3.24-.1-4.8-2,.88-2.65,2.35a19,19,0,0,0-1.07,4s1,1.67-.59,7.45-.59,5.68-.2,4.11a18.57,18.57,0,0,1,2.26-4.31,18.85,18.85,0,0,1,2.86-3.33V342.29c-3.85-1.46-8.59-3.23-14.13-5.24V316.93l8.47,2.54c13,3.93-2-7.85-2-7.85l-.44,1.56-.39,1.66c.1,2.26-3.52.39-3.52.39L732,314.6v-137c1.36.73,2.58,1.44,2.58,1.44,7.46.79,2.75-3.53,2.75-3.53l-1-.58-2.64-.78a5.42,5.42,0,0,0-1.67-.25v-18ZM745.62,354l.55.16v14.92l-14.13-6V348.74Zm.55-194.47.23.06s3.18,1.51,5.83,2.83v14.48c0,.16,0,.26,0,.29V344.61c-1.66-.64-3.68-1.42-6.06-2.32V194.05a10.34,10.34,0,0,1,1.25-1c2-1.27,4.21-1.17,4.51-4.41s-3.24-2.74-3.24-2.74l-2.52,2.2V159.56Zm6.06,196.31v2.18h0V371.7l-6.06-2.59V354.19Zm0-193.42.87.44v11.44a26.64,26.64,0,0,0-.87,2.6V162.45Zm0,14.77V344.61l.87.33V176.2l-.22.31c-.38.56-.58.76-.65.71Zm0,178.65.36.1a10.49,10.49,0,0,1,.51-1.43v7.95l-.09-.18.09.18v9.59l-.87-.38V358.06h0v-2.18Zm0,2.19v0m.87-195.16c1,.52,1.91,1,2.34,1.25,1.57,1-.59,4.91-1.38,7.46-.24.78-.61,1.79-1,2.73V162.89Zm0,182.05c2.81,1.09,4.32,1.7,4.32,1.7-.4,2.14-1.07,4.27-2.18,5a6.87,6.87,0,0,0-2.14,2.86v7.95l.1.17-.1-.17v9.59l6,2.56A231.32,231.32,0,0,0,772,417.29V388.92c-4.63-16.78-9.32-48.08-7.77-71.61,1.45-21.8,5.63-36.53,7.77-42.92V189.31a21.05,21.05,0,0,1-5.61,1.54c-5.89.78-10.21-.4-5.89-2.16s6.09-1.77,3.73-2-1.18-2.94,6.09-3.73l1.68-.2v-13a71.29,71.29,0,0,1-11.5-1.57,100.24,100.24,0,0,0-7.44,7.94ZM772,169.83h.09c7.85.59,19.83,6.09,19.83,6.09a48.12,48.12,0,0,1,26.45,1.67v56.8a36.78,36.78,0,0,0-8-.54s-10.41-.19-19.83,8.64-16.3,25.73-17.48,28.87c-.22.58-.59,1.59-1.07,3V189.31a14.12,14.12,0,0,0,3.43-2l5.55-4.23,4.26-3A108,108,0,0,1,772,182.79v-13Zm1.85,225.05C779,409,785.48,426,797.66,439.75c7.07,8,13.25,12.79,20.75,14.09v16.48a82.23,82.23,0,0,1-26.5-20.15Q780.41,437,772,417.29V388.92C772.66,391.19,773.29,393.2,773.89,394.88Zm59.7-209.34s11.79,8.25,25.14,24a142,142,0,0,1,9.95,13.34c.42.63.83,1.26,1.23,1.88,1.17,1.81,2.27,3.59,3.29,5.28v14.65l-.33-.59.33.59V471.54c-11,1.34-21.94,2.76-33.26,3.5-7.08.46-14.5-1.46-21.53-4.72V453.84c5.4.93,11.5,0,19.11-2.8,18.66-7.85,29.65-43.79,32.6-61.27a215,215,0,0,0-7.07-98.18c-13.55-43.4-33-53-33-53a39.11,39.11,0,0,0-11.65-4.17v-56.8A54.44,54.44,0,0,1,833.59,185.54Zm47.07,58,3.8,1.73s9.65,3.8,16.21,6.46v51.63q-1.62-5.9-3.58-11.81s-1.83-16-5.76-25.07c3.93,9-1.18,19.66-1.18,19.66l0-.07c4.23,13.86,7.72,28.44,10.54,42.28V468.61l-1.89.38c-8.69.56-17.15,1.53-25.58,2.55V244.65l.34.6-.34-.6V230C876.8,236,879.4,241,880.66,243.51Zm20,8.19c2,.81,3.74,1.52,4.8,2,1.53.66,3.18,1.32,4.94,1.95v54.7h-.82l.82.34v51.46a304.06,304.06,0,0,0-9.74-58.81V251.7Zm0,216.91a94.51,94.51,0,0,0,9.74-2.54V429.35l-5.73-13.06-2-4.91a59.65,59.65,0,0,1,7.69-14.74v-6.17c-1.16-10.45-4.17-34.86-9.74-62.15Zm9.74-213a83.23,83.23,0,0,0,16.16,4.06v61.06l-.44-1.36a14.64,14.64,0,0,0-5.1-7.1,28.69,28.69,0,0,0-10.62-2v-54.7Zm0,55v51.46a284.65,284.65,0,0,1,.56,33.72s-.18-1.93-.56-5.39v6.17l.56-.78,15.6,2.53v-4l-2.58,0q1.28-.19,2.58-.36V331.22c-1-2.94-1.92-5.72-2.89-8.32-3.1-9.25-7.12-9.76-13.27-12.22ZM911,430.62c4.62,8.52,14.48,9.53,15.6,9.62v18.12a61.38,61.38,0,0,1-16.16,7.71V429.35Zm15.6-170.92a57,57,0,0,0,9.09.59V314.4a27,27,0,0,0-7.9-.52,28.34,28.34,0,0,1,7.9,2.93v35.92c-2.59-10.36-5.58-21-9.09-32V259.7Zm0,71.52V394a67.54,67.54,0,0,0,9.09-1.51V365.93a340.83,340.83,0,0,0-9.09-34.71Zm0,63.15,9.09.12v5.37l-9.09-1.47v-4Zm.11,45.87,9,1.28v8.81a49,49,0,0,1-9.09,8V440.24Zm9-179.95a35.64,35.64,0,0,0,11-1.83V329.9q-2.46-6.13-5-12a12,12,0,0,0-6-3.5V260.29Zm0,56.52v35.92c3.17,12.73,5.72,25.06,7.83,37.18.49,3.66-2.1,4.81-3.66,4.64l-4.17-.06v5.37l11,1.78V341.07q-4.08-11.34-8.76-22.39a9,9,0,0,0-2.25-1.87Zm0,49.12c1.42,6.77,2.74,13.9,3.93,21.31.29,1.81,1.2,3.2-.81,3.95a13.92,13.92,0,0,1-3.12,1.27V365.93Zm5.76,76.41a52,52,0,0,1-5.76,8v-8.81Zm194-133.51h0c-11.88-.3-25.5.43-29.66.43-4.32,0-23.17.79-29.46.39s-18.45-1.18-25.52-9.82-2-15.71-4.32-16.49-57-7.46-57-7.46a153.83,153.83,0,0,1-23.18-8.25,52,52,0,0,1-13.68-12.25,23.75,23.75,0,0,1-6,3.08V329.9a349.44,349.44,0,0,1,18.8,62.44c.52,2.9-1,4.11-3.48,4.54l-6.16-.15,6-2a397.66,397.66,0,0,0-15.21-53.67v60.57l31.06,5,63.24,7.47c25,1.71,66.68-.72,94.47-2.79V407.7c-8.48.59-15.12.92-15.14-.06,0-1.62-56.75-.19-56.75-.19-23-2.34-46.27-3-68.54-9.82a10.5,10.5,0,0,1-5.3-7.86c-.59-5.49-.64-34.87,5.08-43.45-.62,3.36-.33,1.57-1.28,8.69l-1.24,17.09v13s-.79,9.82,8.24,11.78q3.32.44,6.74.81c22.25,6.3,44.52,5.87,51.59,6.85s34.17,1.57,34.17,1.57,20.81.2,33.38-.19a48.37,48.37,0,0,0,9-.92v-2.65l-12.89-4.44s7.38,1.13,8.36.94a27.21,27.21,0,0,1,4.53.47V337.87l-9,.06c-29.86.1-59.76,1.08-89.55-1.57-8.83-.79-20.22-1.57-20.22-1.57l-9.82-1.38s-5.26-2.28-8.63,1.61l-9.36-8.65L990.5,323c4.51-6.29,16.1-4.32,16.1-4.32l14.53-.2,25.14,1,36.72.79,52.45,1.93V308.83h0Zm0,0v13.36l16.87.62s17.68.79,32,8.25-2.4,8.62-2.4,8.62a70.2,70.2,0,0,0-16.06-1.75c-11.29-.11-22.77-.09-30.42-.06v61.41l1.32.2s6.32-2.44,11.63-13.83c8.38-18,10.35-39.18,35.37-38.87,0,0-30.49,50.8-31.55,55.32a60.71,60.71,0,0,1,10.31,2.6s5.9,1-8.83,1.77c-5.94.31-12.52.83-18.25,1.23v3.64c16.73-1.24,28.43-2.35,28.43-2.35l1.76.68,4.9,2.26,15.7,10.11,2.13-.23c-1.86-.69-9.6-13.7-9.6-13.7a3.1,3.1,0,0,0,1.24-.27l36.14-3.93,34.17-4.32s44.18-5.69,59.1-7.65a186.6,186.6,0,0,0,27.1-5.7l13.36-4.91s39.47-15.51,45.36-18.07,8-3.92,8.45-5.1,1.17-4.91,3.14-5.89a2.49,2.49,0,0,0,.3-.19V307l-1,.32-.29.17.29-.17h0l.27-.15h0l.26-.13h0l.21-.1,0,0h0l.12-.05-.12.05.12-.05V290.17a41.55,41.55,0,0,1-4.71.57c-2.05,0-7.3-3.42-9.28-8.91v0l-.06-2.22c0-1.37-3.09-1.45-6.48-.79l-48.5,9c-25.73,2.55-62.25,6.21-68.42,6.41s-6.8,4.13-6.8,4.13.21,15.43.33,27.15l-.3-24.47c-18.54,14.79-19.63,17-42.84,17.61-7.26.19-26.9-2.36-39.27-3.93-12.17-1.55-44.3-5.79-45.34-5.93Zm2.93,94.49s.24.9-2.93,1.64v-2.65Zm268.75-113.15.18,0v16.63l0,0h0l-.11,0,.11,0-.11,0V290.17Zm.18,16.77v45c-.06.06-.12.1-.18.15V307Zm0-16.8.54-.09v16.54l-.1,0h0l-.43.15V290.14Zm0,16.8v45a3.39,3.39,0,0,0,.54-.64V306.75l-.54.19Zm.54-.35-.1,0,.1,0Zm0-16.54.64-.11v16.53h-.11l-.18,0h0l-.2.05h0l-.11,0V290.05Zm0,16.54h0l.11,0-.11,0Zm0,.16v44.54a6.8,6.8,0,0,0,.64-1.23V306.54l-.64.21Zm.64-.28h0Zm0-16.53.27-.05v16.56h-.27V289.94Zm0,16.53Zm0,.07v43.52c.1-.25.19-.51.27-.77V306.45l-.27.09Zm.27-.09Zm0-16.56h.09v16.57h0V349l-.09.26V306.45h0V289.89Zm0,16.56h0Zm7-18.45c.19-.88,5.09-2.55,7.64-5.29s2-6.07,2.15-11.26-2.74-2.55-3.13-5.88a20.24,20.24,0,0,1,.68-7l3.33-2c8.33-5.39,6.91-11.3,6.91-11.3a5.91,5.91,0,0,1,.28,2.13L1434,269a13,13,0,0,0,2.47,10.25s-12,4.87-15.92,12.34-5.89,10.4-5.89,10.4-2,4.22-5.62,4.48h-.13c2.88.19,1.63,5.55,1.63,5.55l-1.18,34.56a17.8,17.8,0,0,1-.53,2.46V306.45h0V289.88C1412.22,289.27,1415.63,288.49,1415.74,288Z"/><path class="cls-3" d="M992.27,372.1v13s-.79,9.82,8.24,11.78c19.41,2.55,39,5,58.33,7.66,7.07,1,34.17,1.57,34.17,1.57s20.81.2,33.38-.19,12-2.56,12-2.56l-15.82-5.45s7.38,1.13,8.36.94,10.6,1.37,19.44,2.94,12.17,2.95,12.17,2.95,5.9,1-8.83,1.77-33.36,2.8-33.39,1.17-56.75-.19-56.75-.19c-23-2.34-46.27-3-68.54-9.82a10.5,10.5,0,0,1-5.3-7.86c-.59-5.49-.64-34.87,5.08-43.45-.62,3.36-.33,1.57-1.28,8.69Z"/><path class="cls-3" d="M1183.76,346.78s-30.49,50.8-31.55,55.32l-15.45-2.62s6.32-2.44,11.63-13.83C1156.77,367.64,1158.74,346.47,1183.76,346.78Z"/><path class="cls-4" d="M1365.38,263.9s12.47-7.66,18.56-11.78,6.38-9.82,6.38-9.82l1.89-12.26.27,1.65.67,8.12c.68,10.51-2.06,15.79-8.37,20.86a83.46,83.46,0,0,1-18.91,11l-27.27,11.05-1.1-.14-89.58-3.94a236.74,236.74,0,0,1-30.8-4.5l-8.64-2.95c-5.7-1.7-8.38-4.55-13.75-8.44l-12.17-10.21-31.72-30.72L1138.59,210l-9.11.07q-3.48-2.62-7.15-5.21l10.89,0-44.53-39.78c-7.06-6.55-37.5-23.76-8.45-13.16l16.4,6.59c26.71,13.55,33.48,22.48,33.48,22.48l8.05,8.05c4.13,4.67,8.84,10.2,13.52,15.79l13.9,0,3.38,4.93-13,.06c1.35,1.63,2.84,3.56,4.17,5.18,13.93,17,26.34,32.7,26.34,32.7l13.36,14.34a41,41,0,0,0,19,9.43,194,194,0,0,0,28.09,3.73l91.08,4.77-.69-5.68,1.51-.27C1340.44,273.72,1365.38,263.9,1365.38,263.9Z"/><path class="cls-4" d="M691.22,25.1c-5.16-11.77-8.61-13.71-13.75-15.22-11.1-3.27-29.33,3.25-39.39,6.78-22.64,7.94-41.6,17.71-58.86,34,0,0,19.3-16.11,37-23.41s19-9,44-14.6c0,0,14.4-3.23,20.48,1.86,0,0,4.51.27,13.61,25.08s10.43,33,10.58,33.6l3.73,14C707,69.13,698.84,42.5,691.22,25.1Z"/><path class="cls-4" d="M657.78,15.46c-12.18,3.38-10.48,2.75-10.48,2.75s-7.93,14.4-10.38,19-14.6,36.15-15.29,37,2.23.55,2.23.55,20.74-52,26.13-54c7.47-4.4,22.51-7.61,29-.47C677.44,13.77,662.3,14.21,657.78,15.46Z"/><path class="cls-4" d="M1165.59,204.92c-8.38-12.27-15.92-23.56-19.36-29-3.08-4.86-1.18-8.12,2.12-10.27,4.69-3.06,12.21-3.87,12.21-3.87l6.4-.91c31.83-5.26,63.71-7.28,94.78-10l18.31.12c3.07.68,4.3,1.66,4.12,2.86,2.29,2.31,5.82,3.27,9.93,3.63,0,0-120.58,11-124.7,14.14s-3,7.66-7.07,7.07-2.95,1.37-2,5.3,9,19.44,9,19.44l1.5,5.58,4.39,6.4s24.24,31.47,31,37.64,20.06,6.74,20.06,6.74l13.74,1.77,39.08,3.34,51.53,2,23.12-9.21s14.5-6.86,22.34-10.87,9.52-8.39,9.52-8.39c-.7,3.17-2.33,6.41-4.88,8.22l-49.39,24.48s-85.62-4.82-105.85-7c-17.94-1.91-23.59-8.24-32.4-20-6.09-8.15-15.35-21.35-24.19-34.21Z"/><path class="cls-4" d="M642.5,19.58s-39.26,12-65.37,36.16L566.48,76.89l-4.41,10.58.72,1.06L579.12,56.8s43.49-25.27,56.72-26.25l3.72-6.66Z"/><path class="cls-4" d="M555.92,80.64C557.41,76.86,571,63.17,571,63.17s-15.26,18.64-14.46,20.37a6.09,6.09,0,0,1-.81-2.05c.59-.83.8-1.26.39-1A1,1,0,0,0,555.92,80.64Z"/><path class="cls-3" d="M891.35,266.49l0,0h0l0,0Zm.56,1.51c-.15-.48-.34-1-.56-1.51v0c3.91,9,5.74,25,5.74,25C914.27,343.1,911,395.86,911,395.86s-5.49-59.54-20.82-109.75C890.15,286.11,894.69,276.65,891.91,268Z"/><path class="cls-3" d="M977.73,406.66l63.24,7.47c40.06,2.74,122.9-5.14,122.9-5.14l1.76.68,4.9,2.26,15.7,10.11-3.28.33-29.46,2.95-27.3,2.16s-43.79,2.55-59.1,2.55-49.1-1.77-49.1-1.77l-30.63-2.74-29.66-3.93-33.38-5.5c-19.44-3.53-21.6-4.71-21.6-4.71A59.55,59.55,0,0,1,911,395.86Z"/><path class="cls-3" d="M1180,407.84l36.14-3.93,34.17-4.32s44.18-5.69,59.1-7.65a186.6,186.6,0,0,0,27.1-5.7l13.36-4.91s39.47-15.51,45.36-18.07,8-3.92,8.45-5.1,1.17-4.91,3.14-5.89,2.55-5.7,2.55-5.7l1.18-34.56s1.21-5.2-1.5-5.54c3.67-.26,5.62-4.48,5.62-4.48s2-2.94,5.89-10.4,15.92-12.34,15.92-12.34a21.23,21.23,0,0,0,2.74,3c2.34,3,2.23,6,1.44,8.93,0,0-7,6.17-24.92,15.57l1.49,27.1s1.38.76,2.54-6l2.31,1.84q8.1,2.26,8.6,9.41a13.37,13.37,0,0,0-.35,2.45s-1.56,4.8-8.42,9.6c0,0,.68,2.45,3.72.88s5.54-6.44,5.54-6.44a6.06,6.06,0,0,0,1.61,1.82c3.87,7.3,2,12.59-3.8,16.5l-.65.87c-10.11,6.36-14.64,7.77-14.64,7.77l-82.09,29.85C1258.77,414,1205,420.05,1188.36,421.81c-1.86-.69-9.6-13.7-9.6-13.7A3.1,3.1,0,0,0,1180,407.84Z"/><path class="cls-3" d="M1050.79,299.83c-7.07-8.64-2-15.71-4.32-16.49s-57-7.46-57-7.46a153.83,153.83,0,0,1-23.18-8.25,52,52,0,0,1-13.68-12.25c-12.52,9-34.36,3.88-47.19-1.69-4.52-2-21-8.45-21-8.45l-3.8-1.73a202,202,0,0,0-10.75-18.79l68.25,7.95C960.77,236,982.4,238,1005,241.3a356,356,0,0,0,44.58,5q6,.56,12,1v3.2l-27.52-2.3h0a8.24,8.24,0,0,0-3.52.39,3.61,3.61,0,0,0-2,1.7,3.74,3.74,0,0,0-.29,2.54,8.13,8.13,0,0,0,1.48,3.05l0,.07,16.81,19.14,0,.05a13.06,13.06,0,0,0,4.3,3,15.45,15.45,0,0,0,5.32,1.11h0l5.34.16v27.66A24.13,24.13,0,0,1,1050.79,299.83Zm84.65,9Zm-73.84-61.47c24.48,1.88,49.12,2.79,73.84,3.2v58.27h0c-11.88-.3-25.5.43-29.66.43-4.32,0-23.17.79-29.46.39a53.23,53.23,0,0,1-14.71-2.52V279.47l27.7.84a9.35,9.35,0,0,0,3.52-.37,3.53,3.53,0,0,0,1.76-1.24,2.75,2.75,0,0,0,.43-2.17,5.06,5.06,0,0,0-.92-1.94l0-.07-17.35-20.59,0,0a7.9,7.9,0,0,0-3.58-1.89,27.68,27.68,0,0,0-5.52-.95l-6-.49v-3.2Zm73.84-32.63q-2.91-2.34-6-4.64l6-.05v4.69Zm0,94.1h0Zm0-98.79,3.15,0,.07.07v7.3c-1.06-.89-2.13-1.78-3.22-2.66V210Zm3.22,40.57v58.32l-1.86-.06-1.35,0,3.21.1v.32l-3.21-.42h0V250.56Zm12.18-28.82,31.72,30.72,12.17,10.21c5.37,3.89,8,6.74,13.75,8.44l8.64,2.95a236.74,236.74,0,0,0,30.8,4.5l89.58,3.94,1.1.14,27.27-11.05a83.46,83.46,0,0,0,18.91-11c6.31-5.07,9-10.35,8.37-20.86l-.67-8.12a32.29,32.29,0,0,0,14.52-7,28.64,28.64,0,0,0,4-3.9l21.15,22.8a4.45,4.45,0,0,1,1.2,1.77s1.42,5.91-6.91,11.3l-3.33,2a20.24,20.24,0,0,0-.68,7c.39,3.33,3.33.68,3.13,5.88s.39,8.52-2.15,11.26-7.45,4.41-7.64,5.29-11.27,2.74-13.33,2.74-7.3-3.42-9.28-8.91c0-1.4-.06-2.22-.06-2.22,0-1.37-3.09-1.45-6.48-.79l-48.5,9c-25.73,2.55-62.25,6.21-68.42,6.41s-6.8,4.13-6.8,4.13,0,1,0,2.68c-18.54,14.79-19.63,17-42.84,17.61-7.26.19-26.9-2.36-39.27-3.93-10-1.27-33.52-4.37-42.13-5.51v-.32h0V250.61q10.71.15,21.45.2,7.16.39,3.34-7.44a149.31,149.31,0,0,0-24.79-26v-7.3Z"/><path class="cls-3" d="M1089.42,278.09a7,7,0,0,0,2.65-.26,1.41,1.41,0,0,0,.69-.42.57.57,0,0,0,.06-.45,3,3,0,0,0-.52-1L1075,255.4a6.1,6.1,0,0,0-2.57-1.26,25.68,25.68,0,0,0-5.07-.86l-33.49-2.79a6.35,6.35,0,0,0-2.56.24,1.51,1.51,0,0,0-.83.65,1.53,1.53,0,0,0-.08,1.06,5.61,5.61,0,0,0,1,2.14l16.74,19.07a11,11,0,0,0,3.56,2.5,13.52,13.52,0,0,0,4.58.93l33,1Z"/><path class="cls-3" d="M542.29,125.37c-1.81-.13-3.56-.24-5.23-.31,0,0-1.84-1.36,5.23-2.34v2.65Zm-.21-31.83c-1.4,2.1-5.87,8.63-6.78,10.31-1.18,2.16-7.86,13.35-7.86,13.35a18.11,18.11,0,0,1-4.12,3.34,24.87,24.87,0,0,1-9.23,1.77,14.52,14.52,0,0,1-3.72-.83l4.75-5.2c9.14-10.3,18.15-21,27.17-31.51v8.39a2,2,0,0,0-.21.38l.21-.32V96A2.81,2.81,0,0,1,542.08,93.54Zm.21-8.77c4.74-5.5,9.48-10.93,14.24-16.18V79.5a6.92,6.92,0,0,0-.61,1.14,1.11,1.11,0,0,0-.2.85c-2.22,3.13-9.82,12-9.82,12l-3.34,3a3.28,3.28,0,0,1-.27-.44V93.22c.23-.36.29-.45.08-.17l-.08.11V84.77Zm0,38c.69-.1,1.47-.19,2.34-.28a117.11,117.11,0,0,1,11.9-2.18v6.53c-4.81-.57-9.71-1.09-14.24-1.42v-2.65Zm14.24-21.47V94.77l0,0c-1,1.76,0,8.44,0,6.67,0-.06,0-.15,0-.24Zm0-17.69v-.44a.65.65,0,0,0,0,.42v0Zm6.26,5-.72-1.06,4.41-10.58,10.65-21.15a142.17,142.17,0,0,1,25.16-18.19V34.37a203,203,0,0,0-23.07,16.26,137.57,137.57,0,0,1,23.07-17.56V29.28A201,201,0,0,0,574,50.44c-5.88,5.68-11.69,11.79-17.46,18.15V79.5C559.59,74.66,571,63.17,571,63.17s-13.67,16.7-14.46,20v.44h0a35.24,35.24,0,0,0,3.5,4.77s-2.51,4.62-3.51,6.43v6.48c.44-2.36,6.26-12.72,6.26-12.72l11.39,4.91,11.39,3.34A46.65,46.65,0,0,0,597,100.51c3,.6,4.48-.39,5.33-1.53V44.16c-12.43,6.4-23.17,12.64-23.17,12.64L562.79,88.53ZM594.6,117.4s3-.19,7.69-.44v7.32c-4-.38-8.37,2.21-10.35,8,0-2.52-3.52-1.44-3.52-1.44l-3,9.6s-1.28,6.46-1.18,7.93-2.15-1.08-.78-6.56,1.86-8.23,1.86-8.23l-.2-2.65s-13.88-2.4-28.56-4.17v-6.53A327,327,0,0,1,594.6,117.4Zm7.69-73.24V99c1.1-1.49,1.07-3.23,1.74-2,1.18,2.16,8.54,5.51,8.54,5.51a31.57,31.57,0,0,1,1.87-5.12A133.17,133.17,0,0,1,618,83.62c1.95-6.83,4.78-8.69,4.78-8.69s.34-.06,1.08-.14c-.32,0-2.84.28-2.2-.55s12.84-32.42,15.29-37c2.34-4.41,9.74-17.83,10.34-18.93v0c-.07,0,0,0,0,0V15.74c-13.24,3.46-17,5.72-31,11.48a107,107,0,0,0-14,7.15v3.18a215,215,0,0,1,40.21-18l-2.94,4.31-3.72,6.66c-6.66.49-21,7.13-33.55,13.61Zm0-14.88a179.38,179.38,0,0,1,34.55-16.54,102.36,102.36,0,0,1,10.42-4.61v5.41c-3.43,1.1-6.58,2.21-9.18,3.12a187.17,187.17,0,0,0-35.79,16.41V29.28Zm0,87.68c10.83-.59,30.39-1.48,40.42-.93,0,0,1.11,0,4.55.19v24.31c-16.92-2.78-32.55-5.22-36.25-5.31-.51-6.79-4.46-10.53-8.72-10.94V117Zm37.24-45.15c4.31-2.26,4.45-4.87,7.73-8.07v6.63C644.59,70.83,642,71.32,639.53,71.81ZM688.6,0l67.85,2.32c15.44.38,30.39,1.11,45.24,2.19v5.66l-68.64-4.9L693.77,2.91s9.63,6.68,14.54,23.18A315.48,315.48,0,0,0,719.89,57.9s14.34,34.76,21,35.74l5.1-.08,55.69-.83v2L746,93.56s25.91,1.83,55.69,4.5v38.86a108.79,108.79,0,0,0-15.82,6.79s-7.07,5.5-10.4,6.49-13.26,10.54-14.53,13.68,4.11,1.67,4.8,1.08,5.09-4.12,5.09-4.12a5.62,5.62,0,0,0,4.31-3.82c1.38-3.52,5.82-6.82,5.82-6.82a135.47,135.47,0,0,1,20.73-9.4v34a44.7,44.7,0,0,0-9.73,1.13s-12-5.5-19.83-6.09a72.4,72.4,0,0,1-11.59-1.57s-5.89,5.7-7.66,8.25.4-2.36,1.18-4.91,3-6.48,1.38-7.46-9-4.52-9-4.52L705.75,149l-.39-3.34s-.59,10.6-.79,13-2.16-1.57-1.76-5.5-3.15-3.93-6.29-4.32c-1.79-.22-26.67-4.57-49.26-8.29V116.22c5.84.32,18.42,1.19,43.76,3.54,0,0,2,2.55-3.14,3.53s.2,7.07.2,7.07,2.35,3.54,11.58,9.43,10.8,3.73,21-.59,6.87-7.66,6.87-7.66-2.95-6.28.39-8.25,1-6.48,1-6.48-1.37-1.37-6.67-8.25a22.3,22.3,0,0,1-4.72-14.14L734,92.26H710.86l-.4,12.38-2.55-.2-.75-6.1-.93-2h0c-.08-.14-.67.87-.67.87l-20,.4s3-15.32,0-24.35C681,65.93,663,67.64,647.26,70.37V63.74c1.91-1.86,4.89-3.92,10.38-6.23C672.56,51.22,679,20.28,679,20.28c-1.58-6.51-16.72-6.07-21.24-4.82-8.38,2.33-10.19,2.75-10.5,2.79l0,0v0h0a.11.11,0,0,1,0,0h0V15.74c3.53-.92,7.73-1.93,13-3.12,0,0,14.4-3.23,20.48,1.86,0,0,4.51.27,13.61,25.08s10.43,33,10.58,33.6l3.73,14c-1.67-18-9.79-44.67-17.41-62.07-5.16-11.77-8.61-13.71-13.75-15.22-8.23-2.43-20.38.53-30.21,3.66V8.13C658.78,3.77,672.35.9,688.6,0ZM801.69,4.51C822,6,842.13,8.08,863,10.77v3.77l-50.68-3.61-10.67-.76V4.51Zm0,88.22L863,91.82v5c-19.39-.35-34.82-.86-39.66-1.61l-21.69-.46v-2ZM863,104.66V214.88c-1.38-1.82-2.82-3.63-4.31-5.38-13.35-15.71-25.14-24-25.14-24s-13.5-10.91-31.9-10.75v-34c24.43-8.63,40.94-5.92,40.94-5.92l-11.79-3.54c-10.44.95-19.61,2.38-29.15,5.58V98.06C822.82,100,845.89,102.27,863,104.66Zm0-93.89c17,2.19,34.45,4.76,53,7.69,8.61,1.24,17.11,2.86,25.51,4.94v.18c-18.4-3.88-30.83-3.74-30.82-3.74l-1.3-.18-27.7-3.79-1.78-.12L863,14.54V10.77Zm0,81.05,9.83-.15s7.88.07,20.62.29h.07c2.25,0,28.93.72,48,1.21v4.35c-23.73-.08-54.21-.26-78.49-.7v-5Zm0,12.84c6.49.91,12.14,1.82,16.51,2.73,19,3.93,32.4,5.14,62,10.07v19c-1.82-.54-2.91-.81-2.91-.81l2.91.85v20.63a225.71,225.71,0,0,0-29,5.61l-10,2.47c-6.77,2.36-8.65,6.32-3.41,12.61,11.84,16.64,24.54,34.39,36.49,51.19l.43.59c.33.74,0,1.83-5.47,1.08l-61.84-7.85c-1.75-2.63-3.63-5.31-5.64-8V104.66Zm78.49.75c-10.56,1.77-8.54,4.78,0,8.24Zm0-82q2.54.63,5.06,1.32c-1.73-.42-3.42-.79-5.06-1.14V23.4Zm19.15,70.27c15.31.53,31.18,1.21,46.31,2.06v34c-9.88-2-18.8-3.76-26.9-5.31,9.21,2.1,18.6,4.07,26.9,5.74V161q-5.75-1.22-11.43-2.34A104.84,104.84,0,0,0,979.94,156c-10.21-9.73-23.47-14.88-35.51-18.59,5.81,1.93,15,5.55,22.53,11.11,0,0,7.53,4.43,9.18,7.14-4.73-.35-9.87-.53-15.46-.51q-9.75.8-19.15,2V136.51l2.9.88c-1.1-.37-2.08-.67-2.9-.92v-19c10.49,1.74,23,4,38.56,6.93-15.32-3.49-30.12-7.33-38.56-10.74v-8.24c1.76-.29,3.87-.55,6.35-.77,0,0,13.36-4.91,20.43-4.13a15.62,15.62,0,0,0,11.39-2.94s-16.18,0-38.17,0V93.17ZM1012,96h0l20.09,1.35h0l2.57.2,1.7.08h0V168c-9.8-2.6-19.64-4.91-29.4-7V130.13c15.29,3.07,26.91,5.14,26.91,5.14-9.69-2.05-18.64-3.9-26.91-5.57v-34Zm24.4,1.63,27.95,1.88c7.56.29,21.64,1.41,28.43,2l3.67.31a20.62,20.62,0,0,0,2,.79c25.23,3.92,48.45,6.89,75.1,11,22.37,1.92,78.53,9.72,111.71,16.74,26.63,5.64,50.91,14.81,67.73,21.23A177.37,177.37,0,0,1,1372.53,166l.5.43c4.37,4.06,8.49,16.12,11.8,28.8l-4.36.09a86.19,86.19,0,0,0-9.2-21.74s-4.12-9.62-18.26-13.15-57.93-9-57.93-9-30.44-1-35.55-.39c-2.25.26-13.74,1.28-25.88,2.35L1214.41,155l-12.61,1.09-34.53,4.76-6.71.93s-7.52.81-12.21,3.87c-3.3,2.15-5.2,5.41-2.12,10.27,3.44,5.44,11,16.73,19.36,29l-13.9,0c-4.68-5.59-9.39-11.12-13.52-15.79l-8.05-8.05s-6.77-8.93-33.48-22.48l-16.4-6.59c-29-10.6,1.39,6.61,8.45,13.16l44.53,39.78-10.89,0q-8.11-5.73-17.11-11.38c-21.21-11-44.87-19.16-68.83-25.54V97.65Zm0,0Z"/><path class="cls-4" d="M623.86,74.79s20.74-52,26.13-54c7.47-4.4,22.51-7.61,29-.47,0,0-6.46,30.94-21.38,37.23s-11.29,10.73-18.11,14.3C632.54,73.18,626.72,74.47,623.86,74.79Z"/><path class="cls-3" d="M1388.68,211.65c.43,2,.83,4,1.2,5.83l4.76-2.78V199a2,2,0,0,1-.26-.42c-.78-1.76-3.47-9.68-3.47-9.68a25.19,25.19,0,0,1,3.73,3.88v-3.13A137.09,137.09,0,0,0,1373,166.41c4.37,4.06,8.49,16.12,11.8,28.8.35,1.37.7,2.75,1,4.12s.71,2.91,1,4.34C1402,206.68,1388.68,211.65,1388.68,211.65Zm6-18.89a20.54,20.54,0,0,1,3.73,7.12s-2.66.37-3.73-.9V214.7l4.52-2.65c3.73-2.75,4.12.59,4.12.59l3.72,12a28.64,28.64,0,0,0,4-3.9,118.91,118.91,0,0,0-16.33-31.15Z"/><path class="cls-3" d="M1386.39,201.47v48.62a16.52,16.52,0,0,1-2.45,2c-6.09,4.12-18.56,11.78-18.56,11.78s-24.94,9.82-26.51,10.21l-1.51.27.69,5.68L1247,275.29a194,194,0,0,1-28.09-3.73,41,41,0,0,1-19-9.43l-13.36-14.34s-12.41-15.74-26.34-32.7c-1.33-1.62-2.82-3.55-4.17-5.18l13-.06c8.84,12.86,18.1,26.06,24.19,34.21,8.81,11.79,14.46,18.12,32.4,20,20.23,2.16,105.85,7,105.85,7l49.39-24.48c2.55-1.81,4.18-5.05,4.88-8.22,0-.2.09-.39.12-.59v-1.37a157.16,157.16,0,0,0-4.25-37l4.32-.07c-.34-1.37-.69-2.75-1-4.12-3.31-12.68-7.43-24.74-11.8-28.8a144.73,144.73,0,0,1,13.36,13v22c-.17-.71-.34-1.42-.52-2.14C1386.05,200.05,1386.22,200.76,1386.39,201.47Zm0-22c1.41,1.57,2.78,3.18,4.11,4.8v20.34a30.14,30.14,0,0,0-3.59-.92c.64,2.73,1.23,5.42,1.77,8,0,0,.82-.31,1.82-.82v6.29l-.62.36c.22,1.11.42,2.17.62,3.19v20.47l-.18,1.16a13.07,13.07,0,0,1-3.93,7.79V201.47c.18.74.35,1.47.52,2.2-.17-.73-.34-1.46-.52-2.2Zm4.11,4.8q2.14,2.64,4.14,5.38v3.13a25.19,25.19,0,0,0-3.73-3.88s2.69,7.92,3.47,9.68a2,2,0,0,0,.26.42V214.7l-4.14,2.42v-6.29c2.64-1.33,6.54-4.07,0-6.24V184.25Zm1.71,45.79-1.71,11.1V220.67C1391.3,224.86,1391.89,228.18,1392.21,230Zm18.76-9.26a28.64,28.64,0,0,1-4,3.9l-3.72-12s-.39-3.34-4.12-.59l-4.52,2.65V199c1.07,1.27,3.73.9,3.73.9a20.54,20.54,0,0,0-3.73-7.12v-3.13A118.91,118.91,0,0,1,1411,220.78Z"/><path class="cls-3" d="M901.54,177c-4.92-5.89,2.53-7.25,8.88-9.47l9.37-2.32c5.47-1.47,11.15-2.7,17-3.73V165c-8.37.71-18.14,2.81-29.06,6.06-3.16.79-2.56,2.22-.57,4.23l7.72,8.65,20.85-.78a9,9,0,0,1-3.86-7.82l-2.14-8.4,7.06,2.24v1.94c-1.4-.7-2.8-1.38-4.22-2,1.4,1.06,2.81,2.16,4.22,3.28v16.83a84.47,84.47,0,0,0-16.79.11l5.61,6.63,11.18.73v29.45C925.51,210.3,912.47,192.4,901.54,177Zm35.25-15.52c3-.52,6-1,9-1.41v3.53c-1.67.15-3.32.32-5,.51l5,3.67v2.6l-8.71-5.49-.29,0v-3.44Zm0,7.62v1.94q4.58,2.33,9,5.05V172l-9-2.84Zm0,3.2q4.49,3.57,9,7.5v11.46a34.09,34.09,0,0,0-9-2.13V172.33Zm9,24.88v22.6l-4.58-.69,4.58,6.95v5.07q-3-.42-6-.85c-1-1.38-2-2.78-3-4.21V196.63Zm0-37.11c5.1-.71,10.3-1.29,15.57-1.78v4.46c-5.24.1-10.44.38-15.57.85V160.1Zm0,7.71,7.79,5.75c2.6,0,5.2.06,7.78.12v6l-6.16-.46,6.16,5.29v2.76a142.15,142.15,0,0,0-15.57-11.19V172l5,1.58-5-3.14v-2.6Zm0,12v11.46a15,15,0,0,1,7.79,6.43l-7.79-.51v22.6l15.57,2.34V194.3q-7.83-7.7-15.57-14.47Zm1.11,47.93,14.46,2.34v3.06c-5.28-.66-10.5-1.32-15.57-2v-5.07ZM977,201.25l1.62,1.65v-4.43l-1.42-1.34a15.72,15.72,0,0,1,1.42-3.87v-9.88c-1.76,2.94-4.52,8.14-4.66,12l-12.55-10.78v2.76q3.12,2.55,6.16,5.3l-5.49-.82,4.31,7.5q-2.49-2.53-5-5v27.85l17.21,2.58V212.64A18.19,18.19,0,0,1,977,201.25Zm-15.59-42.93,3.74-.32a114.58,114.58,0,0,1,13.47.76v4.38q-8.72-.52-17.21-.36v-4.46Zm0,15.36q8.67.18,17.21.6V181l-17.21-1.29v-6Zm3.81,57,13.4,1.78v2.77c-5.74-.7-11.51-1.39-17.21-2.1V230.1Zm13.4-18.07v12.09l6,.89.27-.07V216.3l-5.3-2.09a15,15,0,0,1-.93-1.57Zm6.23-3.4v-4.89l-6.23-5.88v4.43l6.23,6.34Zm-6.23-50.48q3.25.38,6.23.89v3.95c-2.08-.18-4.16-.34-6.23-.46v-4.38Zm0,15.52c2.08.1,4.16.22,6.23.34V188.8l-2.75-.11a16.27,16.27,0,0,0-3.48,4.57v-9.88c.82-1.38,1.42-2.26,1.42-2.26l-1.42-.11v-6.73Zm6.23,59V236l-6.23-.77v-2.77Zm0-17v9.25l7.07-1.91,6.29-.2c9.82,3.15,15.12,1,15.12,1a47.63,47.63,0,0,0,6-4.69v-7c-2.7,5.68-7.67,9.48-13.36,9.48-6,0-11.23-4.26-13.81-10.48L987.55,207l-2.75-2.6v4.89l3.73,3.8,3.93,6.28-7.66-3Zm0-56.65c4.81.81,9.1,1.83,12.92,2.82q10.78,2.64,21.54,5.52v3.64l-24.66-6.94c-3.29-.44-6.55-.8-9.8-1.09v-3.95Zm0,15q8.16.48,16.22,1.15,9.18.76,18.24,1.78V185l-2.16-.12c.77.84,1.5,1.69,2.16,2.56v5.69c-2.7-5.68-7.67-9.49-13.36-9.49A14.09,14.09,0,0,0,995,189.2l-10.18-.4V174.62Zm26.32,62.18,8.14,1.07v3c-4.32-.61-8.53-1.28-12.68-2-7-1-14.32-2-21.78-2.89v-2.72Zm8.14-68.81q9.38,2.5,18.68,5.28v3.62l-18.68-5.26V168Zm0,9.56q9.4,1,18.68,2.31v6.08l-18.68-1v-7.42Zm0,9.86a24.48,24.48,0,0,1,5.6,14.83q4-8.28,5.61-2.84l2.74-1.38c.14-2.88,1.83-5.76,4.73-8.64v8.11l-1.49-.36c-4,3.21-1.48,18.85-1.48,18.85a7.39,7.39,0,0,1,3-2V232c-2-.16-3.79-.34-5.25-.51,0,0-7.36-12.09-11-14.37a23.25,23.25,0,0,1-2.46,2.58v-7a23.42,23.42,0,0,0,0-19.69v-5.69Zm18.68,52.92V243c-6.52-.54-12.71-1.25-18.68-2.09v-3Zm0-67.06,2.31.7v3.57l-2.31-.65v-3.62Zm0,6.59,2.31.32v5.88l-2.31-.12v-6.08Zm0,9.52c.7-.7,1.47-1.4,2.31-2.09v3.5a7.15,7.15,0,0,0-1.44,2.82l1.44.27V198l-2.31-.55v-8.11Zm0,24.59a6,6,0,0,1,2.31-.3V232.2l-2.31-.16V214Zm2.31,26.66v2.54l-2.31-.17v-2.67Zm0-66.66c2.4.72,4.8,1.47,7.19,2.23v3.36l-7.19-2V174Zm0,6.21q3.6.51,7.19,1v5.47l-.6,0a14.67,14.67,0,0,0-6.59,4.13v-3.5c.46-.38.94-.77,1.44-1.15l-1.44-.08v-5.88Zm0,13.7,7.19,1.38v9.79a28.65,28.65,0,0,0,0,9.66v2.89c-3.88-5.76-.39-17.92-.39-17.92l-6.8-1.64v-4.16Zm0,19.79V232.2c1.53.11,3.21.2,5,.28l2.15.1V217.69c-1-1.09-3.91-3.81-7.19-4Zm.72,27.05,6.47.38v2.52c-2.45-.12-4.84-.27-7.19-.45v-2.54Zm6.47-64.52a403.67,403.67,0,0,1,43.22,16.35V206.5l-6.24-.63a3.36,3.36,0,0,0-3.39,2.94l-.54,9.34c-.17,2.51.56,3.94,2.51,3.94l7.66-.2v13.44l-4.53-.1s-24.46-1.95-38.69-2.65V217.69c.26.28.4.45.4.45a5.39,5.39,0,0,1-.4-.54v-2.89a24.11,24.11,0,0,0,4,10c2.8,3.92,6.68,6.34,11,6.34s8.21-2.42,11-6.34a27.13,27.13,0,0,0,0-29.59c-2.79-3.91-6.68-6.34-11-6.34s-8.21,2.43-11,6.34a24.16,24.16,0,0,0-4,10v-9.79l1.86.36c1-3.11,4.65-5.77,9.55-8.23l-11.41-.69v-5.47q6.8,1,13.56,2.15l-13.56-3.82V176.2Zm27.7,66.49,15.52,1v2.74c-14.14-.63-28.23-1.53-42.27-2.81l-1,0V241.1Zm15.52-50.14q4.39,2,8.74,4.08c6.23,3.94,12.23,7.68,17.93,11.4V218.2a109.19,109.19,0,0,0-13.72-9.09v16.1l13.72,2.78v8.09l-6.65-.26-20-.49V221.89l1.12,0c5.39-4,8.14-8.53,9.08-14.32l-10.2-1V192.55Zm10.79,51.91,15.88.52v2.4q-13.35-.33-26.67-.91v-2.74Zm53.74-3.6c4.45,5.1,1.34,7.23-3.13,7q-17.38-.08-34.73-.46V245c12.79.41,29.27.94,33.22,1,6.66.1,2.64-3.62,2.64-3.62l-3-3.14-2.84-2.84-12.28.43-17.7-.72V228l13.72,2.78a130.27,130.27,0,0,0-13.72-12.57V208C1132.5,217.93,1145.55,227.7,1155.19,240.86Z"/><path class="cls-3" d="M990.37,202.63v.31c.14,9.11,6.33,16.46,14,16.6v-2.18c-5.8,0-10.5-6.34-10.5-14.15s4.7-14.15,10.5-14.15v-3.35c-6.77.13-12.39,5.91-13.69,13.55A24.71,24.71,0,0,0,990.37,202.63Zm14-13.57c5.8,0,10.51,6.33,10.51,14.15s-4.71,14.15-10.51,14.15v2.18h.24c7.84,0,14.2-7.58,14.2-16.92s-6.36-16.92-14.2-16.92h-.24Z"/><path class="cls-3" d="M1053.24,223.38c2.38,3.33,5.63,5.39,9.19,5.39v-4c-5.89,0-10.66-6.69-10.66-14.94s4.77-14.95,10.66-14.95v-4c-3.56,0-6.81,2.06-9.19,5.39a25,25,0,0,0,0,27Zm9.19-28.45c5.88,0,10.66,6.69,10.66,14.95s-4.78,14.94-10.66,14.94v4c3.56,0,6.81-2.06,9.18-5.39a24.9,24.9,0,0,0,0-27c-2.37-3.33-5.62-5.39-9.18-5.39Z"/><path class="cls-4" d="M1381.55,199.4c-.34-1.36-.7-2.73-1.08-4.1l4.36-.09c.35,1.37.7,2.75,1,4.12Z"/><path class="cls-4" d="M1092.77,101.51s221.33,13.34,280.26,64.9C1373,166.41,1297.16,93.91,1092.77,101.51Z"/><path class="cls-1" d="M192.94,587.14l-3.49,43.37H171.63l2.06-25.92h-18l-9,25.92H129l14.89-43.18,29.29-79.06H197.3Zm-17.82,0,4-50.84-17.51,50.84Z"/><path class="cls-1" d="M236,616.11q15.63,4,11.28,24.74l-.88,3.92Q241,670.45,215.62,670.5t-19.88-25.73l.87-3.92q4.37-20.75,21.75-24.74l1.37-6.29q-15.71-4-11.28-24.8l6.36-30q4.86-22.87,25.48-25.36l3.24-8h12.4l-1.81,8.66q15.76,3.93,11.34,24.74l-6.36,30q-4.35,20.68-21.74,24.74Zm-22.62,28.66q-1.74,8.29,5.92,8.29t9.47-8.29l.87-3.92c1.17-5.49-.81-8.25-5.91-8.29h-.13q-7.6,0-9.34,8.29ZM226.08,585q-1.74,8.29,5.92,8.29t9.47-8.29l6.36-30q1.74-8.23-5.86-8.29h-.12q-7.6,0-9.41,8.29Z"/><path class="cls-1" d="M289.94,587.33l-4.11,19.5q-1.74,8.28,5.86,8.29h.12q7.67-.06,9.41-8.29l1.68-8.1h17.63l-1.68,8.1Q313.38,632.5,288,632.5T268.2,606.83l11-51.71q5.47-25.74,30.77-25.73t19.88,25.73L323,587.33Zm18.76-15.7,3.49-16.51q1.74-8.28-6-8.29t-9.4,8.29l-3.49,16.51Z"/><path class="cls-1" d="M327.51,630.51l21.06-99.13H361l2,9.78q6.36-11,16.58-11.77,20.11.06,14.64,25.73l-16,75.39H360.53l16-75.39q1.74-8.28-6-8.29t-9.4,8.29l-16,75.39Z"/><path class="cls-1" d="M439.22,563.09l1.68-8q1.75-8.28-6-8.29t-9.4,8.29l-11,51.71q-1.74,8.28,5.86,8.29h.12q7.67-.06,9.41-8.29l1.68-8.1h17.63l-1.68,8.1q-5.47,25.67-30.84,25.67t-19.81-25.67l11-51.71q5.49-25.74,30.78-25.73t19.88,25.73l-1.69,8Z"/><path class="cls-1" d="M477.48,530.63h17.63l-21.25,99.88H456.23Zm6.29-29.72H501.4L498,517.18H480.34Z"/><path class="cls-1" d="M538.22,630.51h-12.4l-2-9.79q-6.36,11-16.57,11.78-20.13-.06-14.64-25.73l1.68-8q5.47-25.66,24.86-25.73,8.4,0,12.83,3.92l4.61-21.86q1.81-8.29-5.79-8.29h-.13q-7,.06-8.78,8.29l-.69,3.36H503.58l.69-3.36q5.48-25.68,30.15-25.67,25.29,0,19.81,25.67Zm-28-23.74q-1.74,8.28,6,8.28t9.41-8.28l1.74-8.1q1.68-8.22-5.92-8.23t-9.53,8.29Z"/><path class="cls-1" d="M639.28,606.77q-5.49,25.66-30.84,25.73t-19.81-25.73L604.51,532q5.49-25.67,30.78-25.67T655.17,532ZM637.53,532q1.76-8.22-5.92-8.28h-.12q-7.61,0-9.35,8.28l-15.88,74.77q-1.75,8.28,5.92,8.28t9.47-8.28Z"/><path class="cls-1" d="M669,531.38h12.4l2,9.78q6.36-11,16.57-11.77,20.13.06,14.64,25.73l-11,51.59q-5.43,25.66-25.61,25.73-8.53-.63-11-9l-10,47.1H639.47Zm1.62,75.33q-1.75,8.28,5.92,8.28t9.47-8.28l11-51.59q1.74-8.28-6-8.29t-9.41,8.29Z"/><path class="cls-1" d="M739.09,587.33,735,606.83q-1.76,8.28,5.85,8.29H741q7.66-.06,9.41-8.29l1.68-8.1h17.63l-1.68,8.1q-5.49,25.67-30.84,25.67t-19.82-25.67l11-51.71q5.48-25.74,30.78-25.73T779,555.12l-6.85,32.21Zm18.75-15.7,3.49-16.51q1.74-8.28-6-8.29t-9.41,8.29l-3.49,16.51Z"/><path class="cls-1" d="M831.61,546.83h-11.9q-7.66,0-9.41,8.29l-16,75.39H776.66l21.06-99.13h12.39l2,9.78q5.53-11.77,19.81-11.77a32.67,32.67,0,0,1,3.36.18Z"/><path class="cls-1" d="M873.85,630.51h-12.4l-2-9.79q-6.36,11-16.58,11.78-20.11-.06-14.64-25.73l1.69-8q5.48-25.66,24.85-25.73,8.41,0,12.84,3.92l4.61-21.86q1.8-8.29-5.79-8.29h-.13q-7,.06-8.78,8.29l-.69,3.36H839.21l.68-3.36q5.49-25.68,30.16-25.67,25.29,0,19.81,25.67Zm-28-23.74q-1.75,8.28,6,8.28t9.4-8.28l1.75-8.1q1.68-8.22-5.92-8.23t-9.53,8.29Z"/><path class="cls-1" d="M903.63,554.87q5.49-25.67,25.61-25.73,8.6.61,11,9l7.85-37h17.63L938.21,630.51h-12.4l-2-9.79q-6.36,11-16.58,11.78-20.12-.06-14.64-25.73Zm6.61,51.9q-1.75,8.28,6,8.28t9.4-8.28l11-51.9q1.74-8.28-5.92-8.29t-9.47,8.29Z"/><path class="cls-1" d="M967.93,555.06q5.48-25.68,30.78-25.67t19.87,25.67l-11,51.71q-5.48,25.66-30.83,25.73T957,606.77Zm6.66,51.71q-1.74,8.28,5.92,8.28t9.47-8.28l11-51.71q1.74-8.23-5.86-8.29H995q-7.61,0-9.41,8.29Z"/><path class="cls-1" d="M1071.23,546.83h-11.9q-7.66,0-9.41,8.29l-16,75.39h-17.63l21-99.13h12.4l2,9.78q5.54-11.77,19.81-11.77a32.67,32.67,0,0,1,3.36.18Z"/><path class="cls-1" d="M1113.47,630.51h-12.4l-2-9.79q-6.36,11-16.58,11.78-20.12-.06-14.64-25.73l1.68-8Q1075,573.07,1094.4,573q8.41,0,12.84,3.92l4.61-21.86q1.8-8.29-5.8-8.29h-.12q-7,.06-8.79,8.29l-.68,3.36h-17.63l.68-3.36q5.49-25.68,30.16-25.67,25.29,0,19.81,25.67Zm-28-23.74q-1.74,8.28,6,8.28t9.41-8.28l1.75-8.1q1.68-8.22-5.92-8.23t-9.53,8.29Z"/><path class="cls-1" d="M1174.9,554.87q5.47-25.67,25.61-25.73,8.6.61,11,9l7.85-37H1237l-27.47,129.35h-12.4l-2-9.79q-6.36,11-16.58,11.78-20.12-.06-14.64-25.73Zm6.6,51.9q-1.74,8.28,6,8.28t9.41-8.28l11-51.9q1.74-8.28-5.92-8.29t-9.47,8.29Z"/><path class="cls-1" d="M1250,587.33l-4.11,19.5q-1.74,8.28,5.86,8.29h.12q7.67-.06,9.41-8.29l1.68-8.1h17.64l-1.69,8.1q-5.48,25.67-30.84,25.67t-19.81-25.67l11-51.71q5.47-25.74,30.77-25.73t19.88,25.73L1283,587.33Zm18.76-15.7,3.49-16.51q1.74-8.28-6-8.29t-9.41,8.29l-3.49,16.51Z"/><path class="cls-1" d="M1357.2,630.51H1333l4.36-79,3.42-43.23h17.82l-7.6,94.2,32.46-94.2h17.82l-15,43.36Z"/><path class="cls-1" d="M1403.49,530.63h17.63l-21.24,99.88h-17.64Zm6.29-29.72h17.63L1424,517.18h-17.63Z"/><path class="cls-1" d="M1464.24,630.51h-12.4l-2-9.79q-6.35,11-16.57,11.78-20.12-.06-14.64-25.73l1.68-8q5.49-25.66,24.86-25.73,8.41,0,12.84,3.92l4.6-21.86q1.82-8.29-5.79-8.29h-.12q-7,.06-8.79,8.29l-.68,3.36H1429.6l.68-3.36q5.49-25.68,30.16-25.67,25.29,0,19.81,25.67Zm-28-23.74q-1.74,8.28,6,8.28t9.41-8.28l1.74-8.1c1.13-5.48-.85-8.23-5.91-8.23s-8.33,2.77-9.54,8.29Z"/><path class="cls-1" d="M1517.75,530.63l-24.29,114.14q-5.43,25.74-30.72,25.73h-.19l3.68-17.44h.19q7.66,0,9.4-8.29l24.3-114.14Zm-11.33-29.72h17.63l-3.43,16.27H1503Z"/><path class="cls-1" d="M1537,587.33l-4.12,19.5q-1.74,8.28,5.86,8.29h.12q7.67-.06,9.41-8.29l1.68-8.1h17.64l-1.69,8.1q-5.48,25.67-30.84,25.67t-19.81-25.67l11-51.71q5.48-25.74,30.78-25.73t19.87,25.73L1570,587.33Zm18.75-15.7,3.49-16.51q1.74-8.28-6-8.29t-9.41,8.29l-3.49,16.51Z"/><path class="cls-1" d="M1679.12,508.27l-3.68,17.38h-16.51l-22.3,104.86H1619l22.3-104.86h-16.51l3.68-17.38Z"/><path class="cls-1" d="M1656.38,610.26h20.25l-4.3,20.25h-20.25Z"/><path class="cls-1" d="M1742.36,606.77q-4.86,22.92-24.74,25.36-.49,4,18.44,4.11l-3.11,14.7q-15.65,0-20.81-3.05-6.8-3.87-4.49-15.58-21.06-1.56-16-25.54L1707.59,532q5.49-25.67,30.78-25.67T1758.24,532ZM1740.61,532c1.17-5.48-.81-8.24-5.91-8.28h-.13q-7.6,0-9.35,8.28l-15.88,74.77q-1.75,8.28,5.92,8.28t9.47-8.28Z"/><path class="cls-1" d="M1755.94,610.26h20.25l-4.3,20.25h-20.25Z"/><rect class="cls-1" x="1312.54" y="677.53" width="588.21" height="129"/><rect class="cls-6" x="1552.14" y="457.92" width="109" height="568.21" transform="translate(2348.67 -864.61) rotate(90)"/><path class="cls-7" d="M1415.88,702.64h17.5q16,0,12.28,17.54L1443,732.71q-2.38,11-12.58,14.49l5.27,38.78h-13.17l-3.06-36.66-1.57.22L1410.19,786h-12Zm9.52,11.85-5.1,23.87h2.76a12.47,12.47,0,0,0,3.53-.34,6.72,6.72,0,0,0,4.41-5.31l2.64-12.53q1.23-5.68-4-5.69Z"/><path class="cls-7" d="M1445,772.18h13.81L1455.9,786h-13.81Z"/><path class="cls-7" d="M1484.23,702.64h12l1.11,48.34,10.28-48.34h11.13L1501.05,786h-12l-1-46.81L1478.07,786h-11.55Z"/><path class="cls-7" d="M1514.61,772.18h13.8l-2.93,13.8h-13.81Z"/><path class="cls-7" d="M1585,702.64l-2.5,11.85h-11.26L1556,786h-12l15.21-71.49h-11.26l2.51-11.85Z"/><path class="cls-7" d="M1569.45,772.18h13.8l-2.93,13.8h-13.8Z"/><path class="cls-7" d="M1643.49,746.14q.93-4.42-.72-5.23a7.8,7.8,0,0,0-3.19-.46c-.37,0-.75,0-1.14,0q-3.7.16-4.8,3.27l-.85,3.36h-12L1632,702.64h32.75l-2.5,11.85h-21.2l-4.67,17.93a13,13,0,0,1,9.09-3.53,11.6,11.6,0,0,1,1.44.09q6.16.54,8.5,5,1.9,3.66.08,12.11l-5,23.66q-3.74,17.51-21,17.5T1616,769.8l2.09-9.86h12L1628,769.8q-1.2,5.66,4,5.65h.08q5.24,0,6.42-5.65Z"/><path class="cls-7" d="M1695.66,769.8q-3.75,17.51-21,17.5t-13.51-17.5l10.83-51q3.75-17.54,21-17.54t13.55,17.54Zm-1.19-51q1.18-5.64-4-5.65h-.08q-5.19,0-6.38,5.65l-10.83,51q-1.19,5.66,4,5.65t6.45-5.65Z"/><path class="cls-7" d="M1717.66,714.49l2.51-11.85h35.55l-1.82,8.54L1721.19,786h-12.32l31.26-71.49Z"/><path class="cls-7" d="M1763.24,714.49l2.51-11.85h35.56l-1.83,8.54L1766.77,786h-12.32l31.27-71.49Z"/><path class="cls-7" d="M1824.29,749.49a14.91,14.91,0,0,1-9.09,3.06c-.54,0-1.09,0-1.66-.08q-5.65-.6-8.2-4.12t-.59-13l3.52-16.57q3.75-17.49,21-17.54t13.51,17.54l-10.83,51q-3.74,17.51-21,17.5t-13.51-17.5l2.38-11.22h12l-2.38,11.22q-1.18,5.61,4,5.65h.08q5.19,0,6.38-5.65Zm-7.52-14.1q-.93,4.43.76,5.23a8.06,8.06,0,0,0,3.11.42c.36,0,.76,0,1.18,0,2.86-.09,4.68-2,5.44-5.61l3.53-16.57q1.18-5.64-4-5.65t-6.45,5.65Z"/></g></g></svg>